<svg width="100" height="100" viewBox="0 0 100 100" fill="none" xmlns="http://www.w3.org/2000/svg">
<g clip-path="url(#clip0_1414_86)">
<path d="M34.7999 15.8001C34.1999 15.8001 33.7 15.3001 33.7 14.7001V5.30007C33.7 4.70007 34.1999 4.20007 34.7999 4.20007C35.3999 4.20007 35.9 4.70007 35.9 5.30007V14.6001C35.9 15.3001 35.3999 15.8001 34.7999 15.8001Z" fill="#FFD78A"/>
<path d="M29.0001 16.5001C28.6001 16.5001 28.2001 16.3001 28.0001 15.9001L24.5001 8.50006C24.2001 7.90006 24.5001 7.30006 25.0001 7.00006C25.6001 6.70006 26.2001 7.00006 26.5001 7.50006L30.0001 14.9001C30.3001 15.5001 30.0001 16.1001 29.5001 16.4001C29.3001 16.4001 29.2001 16.5001 29.0001 16.5001Z" fill="#FFD78A"/>
<path d="M40.6 16.5C40.4 16.5 40.3 16.5 40.1 16.4C39.5 16.1 39.3 15.5 39.6 14.9L43 7.40004C43.3 6.80004 43.9 6.60004 44.5 6.90004C45.1 7.20004 45.3 7.80004 45 8.40004L41.5 15.8C41.4 16.2 41 16.5 40.6 16.5Z" fill="#FFD78A"/>
<path d="M31.4001 63.1C30.0001 63.1 29.0001 63 28.9001 63C28.3001 62.9 27.8001 62.4 27.9001 61.8C28.0001 61.2 28.5001 60.7 29.1001 60.8C31.0001 61 36.5001 61.1 39.5001 59C40.2001 58.5 40.1001 57.7 39.8001 57.2C39.6001 56.9 39.1001 56.2 38.0001 56.8C33.6001 58.9 29.7001 57.2 29.6001 57.1C29.6001 57.1 29.5001 57.1 29.5001 57C23.5001 53.3 17.4001 53.2 12.3001 56.9C11.8001 57.3 11.1001 57.1 10.7001 56.6C10.3001 56.1 10.5001 55.4 11.0001 55C16.9001 50.8 23.8001 50.8 30.6001 55C31.0001 55.2 33.9001 56.2 37.1001 54.7C39.2001 53.7 41.0001 54.6 41.8001 56C42.8001 57.7 42.4001 59.7 40.8001 60.8C38.0001 62.7 34.0001 63.1 31.4001 63.1Z" fill="#FFD78A"/>
<path d="M32.0001 68.6C31.7001 68.6 31.3001 68.6 31.0001 68.6C19.6001 67.9 11.6001 67.4 11.5001 67.4C10.9001 67.4 10.4001 66.8 10.5001 66.2C10.5001 65.6 11.1001 65.1 11.7001 65.2C11.8001 65.2 19.8001 65.8 31.2001 66.4C37.5001 66.8 41.7001 63.7 49.0001 56.6C49.4001 56.2 49.4001 55.6 49.1001 55.2C48.8001 54.8 48.3001 54.7 47.9001 54.9L41.9001 59.2C41.4001 59.6 40.7001 59.4 40.3001 58.9C39.9001 58.4 40.1001 57.7 40.6001 57.3L46.7001 52.9C46.8001 52.9 46.8001 52.8 46.9001 52.8C48.3001 52.1 50.0001 52.5 50.9001 53.7C52.0001 55 51.9001 57 50.6001 58.2C44.2001 64.3 39.2001 68.6 32.0001 68.6Z" fill="#FFD78A"/>
<path d="M9.10005 72.3H4.90005C4.30005 72.3 3.80005 71.8 3.80005 71.2C3.80005 70.6 4.30005 70.1 4.90005 70.1H9.10005C9.80005 70.1 10.3 69.6 10.3 68.9V52.8C10.3 52.1 9.80005 51.6 9.10005 51.6H4.90005C4.30005 51.6 3.80005 51.1 3.80005 50.5C3.80005 49.9 4.30005 49.4 4.90005 49.4H9.10005C11 49.4 12.6 50.9 12.6 52.9V69C12.5 70.7 11 72.3 9.10005 72.3Z" fill="#FFD78A"/>
<path d="M34.8 43.3C32.1 43.3 30 41.1 30 38.5C30 37.9 30.5 37.4001 31.1 37.4001C31.7 37.4001 32.2 37.9 32.2 38.5C32.2 39.9 33.4 41.1 34.8 41.1C36.2 41.1 37.4 39.9 37.4 38.5C37.4 37.5 36.9 36.6001 34.5 35.9001C33.4 35.5001 30 34.4 30 31.1C30 28.4 32.2 26.3 34.8 26.3C37.5 26.3 39.6 28.5001 39.6 31.1C39.6 31.7 39.1 32.2001 38.5 32.2001C37.9 32.2001 37.4 31.7 37.4 31.1C37.4 29.7 36.2 28.5 34.8 28.5C33.4 28.5 32.2 29.7 32.2 31.1C32.2 31.9 32.5 32.9001 35.1 33.7001C37.2 34.4001 39.6 35.5 39.6 38.5C39.6 41.1 37.5 43.3 34.8 43.3Z" fill="#FFD78A"/>
<path d="M34.7999 28.5001C34.1999 28.5001 33.7 28.0001 33.7 27.4001V25.3001C33.7 24.7001 34.1999 24.2001 34.7999 24.2001C35.3999 24.2001 35.9 24.7001 35.9 25.3001V27.4001C35.9 28.0001 35.3999 28.5001 34.7999 28.5001Z" fill="#FFD78A"/>
<path d="M34.7999 45.4001C34.1999 45.4001 33.7 44.9001 33.7 44.3001V42.2001C33.7 41.6001 34.1999 41.1001 34.7999 41.1001C35.3999 41.1001 35.9 41.6001 35.9 42.2001V44.3001C35.9 44.9001 35.3999 45.4001 34.7999 45.4001Z" fill="#FFD78A"/>
<path d="M34.7999 49.9001C26.4999 49.9001 19.7 43.1001 19.7 34.8001C19.7 26.5001 26.4999 19.7001 34.7999 19.7001C43.0999 19.7001 49.9 26.5001 49.9 34.8001C49.9 43.1001 43.0999 49.9001 34.7999 49.9001ZM34.7999 21.9001C27.6999 21.9001 21.9 27.7001 21.9 34.8001C21.9 41.9001 27.6999 47.7001 34.7999 47.7001C41.8999 47.7001 47.7 41.9001 47.7 34.8001C47.7 27.7001 41.8999 21.9001 34.7999 21.9001Z" fill="#FFD78A"/>
<path d="M82.2001 33.3001C81.7001 33.3001 81.2001 32.9001 81.1001 32.4001L80.5001 29.9001C79.4001 25.1001 75.7001 21.3001 71.1001 20.2001C70.9001 20.2001 70.7001 20.1001 70.5001 20.1001C66.1001 19.4001 63.2001 18.2001 61.6001 16.6001C60.0001 14.9001 59.6001 12.3001 60.5001 10.2001C61.4001 8.10007 63.6001 6.70007 65.9001 6.70007C66.4001 6.70007 69.9001 6.80007 71.6001 8.80007C72.0001 9.30007 72.0001 10.0001 71.5001 10.4001C71.0001 10.8001 70.3001 10.8001 69.9001 10.3001C68.9001 9.20007 66.6001 8.90007 65.8001 8.90007C64.4001 8.90007 63.0001 9.80007 62.4001 11.1001C61.8001 12.4001 62.1001 14.0001 63.1001 15.1001C64.3001 16.3001 67.0001 17.3001 70.7001 17.9001C71.0001 17.9001 71.2001 18.0001 71.5001 18.0001C77.0001 19.2001 81.3001 23.7001 82.6001 29.4001L83.2001 31.9001C83.3001 32.5001 83.0001 33.1001 82.4001 33.2001C82.4001 33.3001 82.3001 33.3001 82.2001 33.3001Z" fill="#FFD78A"/>
<path d="M64.2001 67.4001C64.0001 67.4001 63.9001 67.4001 63.7001 67.3001C59.9001 65.4001 57.7001 60.9001 58.4001 56.8001C59.0001 53.2001 61.6001 49.9001 66.2001 46.7001C67.1001 46.1001 68.0001 45.5001 69.1001 44.9001C70.9001 43.8001 72.9001 42.6001 74.5001 41.3001C75.8001 40.3001 76.0001 37.0001 75.3001 35.0001C70.1001 34.9001 65.6001 31.3001 64.2001 26.1001C63.4001 23.2001 63.6001 17.6001 63.7001 17.3001C63.7001 16.7001 64.2001 16.2001 64.9001 16.2001C65.5001 16.2001 66.0001 16.7001 66.0001 17.4001C66.0001 17.5001 65.8001 22.9001 66.5001 25.5001C67.7001 30.0001 71.7001 33.0001 76.1001 32.8001C76.5001 32.8001 76.9001 33.0001 77.1001 33.4001C78.4001 35.9001 78.5001 41.1001 76.0001 43.1001C74.3001 44.5001 72.2001 45.7001 70.4001 46.9001C69.4001 47.5001 68.4001 48.1001 67.6001 48.7001C63.5001 51.5001 61.3001 54.3001 60.8001 57.3001C60.3001 60.5001 62.0001 64.0001 64.9001 65.5001C65.5001 65.8001 65.7001 66.5001 65.4001 67.0001C65.0001 67.2001 64.6001 67.4001 64.2001 67.4001Z" fill="#FFD78A"/>
<path d="M64.7 100C64.6 100 64.6 100 64.5 100C60.4 99.4001 56.2 96.6001 53.2 92.7001C50.5 89.1001 49.2 84.5001 49.7 80.0001C50.4 73.6001 56.1 67.0001 59.9 62.6001C60.3 62.1001 61 62.1001 61.5 62.5001C62 62.9001 62 63.6001 61.6 64.1001C58 68.2001 52.6 74.5001 51.9 80.3001C51.5 84.2001 52.6 88.2001 54.9 91.4001C57.5 94.9001 61.2 97.3001 64.7 97.9001C65.3 98.0001 65.7 98.6001 65.6 99.2001C65.7 99.6001 65.3 100 64.7 100Z" fill="#FFD78A"/>
<path d="M88.6001 100C88.3001 100 87.9001 99.8001 87.7001 99.6001C83.2001 93.6001 86.2001 81.9001 88.4001 73.4001C88.9001 71.3001 89.4001 69.4001 89.8001 67.8001C92.2001 56.3001 91.0001 49.7001 90.1001 44.9001C89.4001 40.8001 88.8001 37.6001 90.9001 33.8001C95.7001 25.4001 94.7001 14.6001 88.4001 7.10005C85.4001 3.40005 80.6001 1.70005 75.2001 2.40005C70.6001 3.00005 66.5001 5.50005 65.0001 8.70005C64.7001 9.30005 64.1001 9.50005 63.5001 9.20005C63.0001 8.90005 62.7001 8.30005 63.0001 7.70005C64.8001 3.80005 69.6001 0.900052 75.1001 0.100052C81.1001 -0.699948 86.8001 1.40005 90.3001 5.60005C97.1001 13.8001 98.2001 25.6001 93.0001 34.8001C91.2001 37.9001 91.7001 40.3001 92.4001 44.4001C93.3001 49.4001 94.5001 56.2001 92.1001 68.2001C91.8001 69.9001 91.2001 71.8001 90.7001 73.9001C88.6001 82.0001 85.7001 93.1001 89.6001 98.2001C90.0001 98.7001 89.9001 99.4001 89.4001 99.8001C89.1001 99.9001 88.8001 100 88.6001 100Z" fill="#FFD78A"/>
<path d="M67.9999 83.3C67.5999 83.3 67.1999 83.1 66.9999 82.7C66.6999 82.1 66.8999 81.5 67.4999 81.2C68.1999 80.9 82.9999 73.1 81.0999 50.1C80.9999 49.5 81.4999 48.9 82.0999 48.9C82.6999 48.9 83.2999 49.3 83.2999 49.9C85.2999 74.5 68.6999 83.1 68.4999 83.1C68.2999 83.2 68.1999 83.3 67.9999 83.3Z" fill="#FFD78A"/>
</g>
<defs>
<clipPath id="clip0_1414_86">
<rect width="100" height="100" fill="white"/>
</clipPath>
</defs>
</svg>
