<svg width="32" height="32" viewBox="0 0 32 32" fill="none" xmlns="http://www.w3.org/2000/svg">
<path d="M32 7.62097H0V24.38H32V7.62097ZM31 23.38H1V8.62097H31V23.38Z" fill="#FFD78A"/>
<path d="M2.46997 9.93396V12.57L5.10597 9.93396H2.46997Z" fill="#FFD78A"/>
<path d="M2.46997 19.4299V22.0659H5.10597L2.46997 19.4299Z" fill="#FFD78A"/>
<path d="M29.53 9.93396H26.894L29.53 12.57V9.93396Z" fill="#FFD78A"/>
<path d="M29.53 19.4299L26.894 22.0659H29.53V19.4299Z" fill="#FFD78A"/>
<path d="M14.2891 19.877C15.0741 20.787 16.2031 21.273 17.4751 21.273C18.5111 21.273 19.3271 20.944 19.8141 20.614L19.5471 19.625C19.1861 19.829 18.4641 20.143 17.6331 20.143C16.7851 20.143 16.0001 19.845 15.4201 19.232C14.9961 18.761 14.6821 18.087 14.5561 17.177H18.9971V16.408H14.4451C14.4451 16.298 14.4451 16.219 14.4451 16.125C14.4451 15.905 14.4611 15.67 14.4771 15.465H18.9971V14.681H14.6191C14.7761 13.849 15.0901 13.143 15.5601 12.688C16.0941 12.123 16.7841 11.824 17.6321 11.824C18.3381 11.824 18.9971 12.028 19.3901 12.263L19.7031 11.227C19.2641 10.992 18.5421 10.725 17.6161 10.725C16.3291 10.725 15.3091 11.196 14.5081 12.028C13.8811 12.672 13.4101 13.582 13.2211 14.681H12.1851V15.465H13.1121C13.0961 15.685 13.0811 15.921 13.0811 16.172C13.0811 16.25 13.0811 16.329 13.0811 16.407H12.1861V17.176H13.1591C13.3011 18.307 13.6931 19.218 14.2891 19.877Z" fill="#FFD78A"/>
</svg>
