<svg width="100" height="100" viewBox="0 0 100 100" fill="none" xmlns="http://www.w3.org/2000/svg">
<path d="M26.8 41.2C24.5 41.2 23.7 45.7 23.2 48.5C22.9 50.4 22.7 51 22.2 51C21 51 20 47.9 19.3 45.4C18.3 41.8 17.6 37.2 17.4 32.9C17.2 29.1 15.8 26.7 14 26.7C13.8 26.7 13.5 26.6999 13.3 26.7999C10.3 27.6999 9.69995 31.0999 9.09995 36.5999C8.49995 42.9999 7.89995 58.7999 17.9 67.1999L18 67.3V67.5C17 79.3 15.8 95.4999 15.6 98.0999H30.6C30.4 95.5999 29.3 80.1999 28.5 66.5999C28.7 64.6999 29.1 62.0999 29.5 59.2999C30 55.6999 30.5 52 30.7 50C30.9 45.8 30.5 43.4 29.4 42.2C28.7 41.5 27.9 41.2 26.8 41.2Z" fill="white"/>
<path d="M85.6 67.2999L85.7 67.1999C95.7 58.7999 95.1 42.8999 94.4 36.4999C93.8 31.0999 93.2 27.6999 90.2 26.6999C90 26.5999 89.7 26.5999 89.5 26.5999C87.7 26.5999 86.3 28.9999 86.1 32.7999C85.9 37.0999 85.2 41.5999 84.2 45.2999C83.6 47.9999 82.5 50.9999 81.4 50.9999C80.9 50.9999 80.8 50.2999 80.4 48.4999C79.9 45.7999 79.1 41.1999 76.8 41.1999C75.7 41.1999 74.9 41.4999 74.3 42.0999C73.2 43.2999 72.8 45.7999 73 49.8999C73.1 51.8999 73.6 55.6999 74.2 59.1999C74.6 61.8999 75 64.4999 75.2 66.4999C74.4 80.0999 73.3 95.4999 73.1 97.9999H88.1C87.9 95.3999 86.7 79.1999 85.7 67.3999L85.6 67.2999Z" fill="white"/>
<path d="M67.2 82.4998C63.2 87.1998 56.5 90.4998 51.1 90.4998C45.8 90.4998 39.4 87.3998 35.4 82.9998C34.8 82.2998 33.7 82.1998 33 82.8998C32.3 83.4998 32.2 84.5998 32.9 85.2998C37.5 90.4998 44.8 93.9998 51.1 93.9998C57.5 93.9998 65 90.2998 69.8 84.7998C70.4 84.0998 70.3 82.9998 69.6 82.3998C68.9 81.6998 67.8 81.6998 67.2 82.4998Z" fill="white"/>
<path d="M21.3999 36.9C21.2999 37.8 21.9999 38.6999 22.8999 38.7999C23.7999 38.8999 24.6999 38.1999 24.7999 37.2999C25.2999 31.6999 26.5999 26.7 28.3999 22.4C31.2999 26.5999 37.8999 34.7 49.1999 40C44.8999 42.5 39.8999 44.8 34.1999 46.9C33.2999 47.2 32.8999 48.1999 33.1999 49.0999C33.3999 49.7999 34.0999 50.2 34.7999 50.2C34.9999 50.2 35.1999 50.1999 35.3999 50.0999C58.9999 41.4999 70.4999 27.9999 74.3999 22.2999C76.2999 26.5999 77.5999 31.7 78.1999 37.4C78.2999 38.3 78.9999 38.9 79.8999 38.9C79.9999 38.9 79.9999 38.9 80.0999 38.9C80.9999 38.8 81.6999 38 81.5999 37C80.8999 29.8 79.0999 23.3 76.1999 18C76.1999 18 76.1999 18 76.1999 17.9C74.8999 15.6 73.4999 13.5 71.8999 11.7C66.3999 5.49995 59.2999 2.19995 51.1999 2.19995C43.1999 2.19995 36.1999 5.49995 30.8999 11.7C29.2999 13.5 27.8999 15.6 26.6999 17.9C26.6999 17.9 26.6999 18 26.5999 18C23.7999 23.3 21.9999 29.7 21.3999 36.9ZM51.0999 35.0999C44.8999 35.0999 39.8999 30.0999 39.8999 23.9C39.8999 17.7 44.8999 12.7 51.0999 12.7C57.2999 12.7 62.2999 17.7 62.2999 23.9C62.2999 30.0999 57.2999 35.0999 51.0999 35.0999ZM51.0999 5.59995C60.1999 5.59995 67.7999 10.4 72.6999 18.7999C71.6999 20.2999 69.2999 23.9 64.8999 28.2C65.2999 26.9 65.4999 25.4 65.4999 23.9C65.4999 15.9999 59.0999 9.49995 51.0999 9.49995C43.0999 9.49995 36.7999 15.9999 36.7999 23.9C36.7999 25.1999 36.9999 26.4 37.2999 27.6C33.2999 23.8 30.9999 20.2999 30.0999 18.7999C34.6999 10.4 42.0999 5.59995 51.0999 5.59995Z" fill="white"/>
<path d="M45.7999 24.6999C47.4015 24.6999 48.6999 23.4015 48.6999 21.7999C48.6999 20.1983 47.4015 18.8999 45.7999 18.8999C44.1983 18.8999 42.8999 20.1983 42.8999 21.7999C42.8999 23.4015 44.1983 24.6999 45.7999 24.6999Z" fill="white"/>
<path d="M54.9999 27.2H47.1999C46.5999 27.2 46.0999 27.8 46.2999 28.4C46.7999 30.6 48.7999 32.2 51.0999 32.2C53.3999 32.2 55.3999 30.6 55.8999 28.4C56.0999 27.8 55.5999 27.2 54.9999 27.2Z" fill="white"/>
<path d="M56.4999 24.6999C58.1015 24.6999 59.3999 23.4015 59.3999 21.7999C59.3999 20.1983 58.1015 18.8999 56.4999 18.8999C54.8982 18.8999 53.5999 20.1983 53.5999 21.7999C53.5999 23.4015 54.8982 24.6999 56.4999 24.6999Z" fill="white"/>
</svg>
