<svg width="276" height="251" viewBox="0 0 276 251" fill="none" xmlns="http://www.w3.org/2000/svg">
<g clip-path="url(#clip0_1406_142)">
<path d="M113.332 46.2116C116.707 34.255 109.751 21.826 97.7942 18.4505C85.8377 15.075 73.4087 22.0313 70.0332 33.9878C66.6577 45.9443 73.6139 58.3733 85.5705 61.7489C97.527 65.1244 109.956 58.1681 113.332 46.2116Z" fill="white"/>
<path d="M98.016 153.922C98.317 152.992 98.849 152.167 99.733 151.58C99.732 151.58 100.842 150.775 102.815 149.409C102.295 142.611 101.896 136.315 102.042 131.625C102.044 131.57 102.045 131.509 102.047 131.453C98.649 130.406 95.472 129.044 92.536 127.363C80.798 120.668 75.251 110.363 72.665 102.898C70.071 95.445 69.509 88.773 69.491 84.478C69.491 83.701 69.509 83.222 69.514 83.123C69.764 77.775 74.149 73.59 79.494 73.59C79.652 73.59 79.81 73.594 79.969 73.6C85.459 73.854 89.731 78.528 89.492 84.039C89.49 84.092 89.488 84.24 89.488 84.517C89.435 87.076 90.129 95.099 93.89 101.429C96.014 105.044 98.74 107.794 102.19 109.835C102.15 108.244 102.096 106.637 102.025 105.022C106.159 108.2 110.981 111.245 116.564 113.873C117.812 113.963 119.091 114.023 120.435 114.025C122.402 114.025 124.481 113.908 126.61 113.711C128.091 110.597 132.204 108.658 137.601 108.658C139.068 108.658 140.574 108.806 142.078 109.099C143.767 109.427 145.335 109.921 146.764 110.532C145.951 107.733 143.639 105.477 140.579 104.896C122.64 101.464 111.472 93.167 104.496 85.734C101.573 82.605 99.438 79.635 97.958 77.278C96.623 73.365 94.898 70.297 92.668 68.59C90.059 66.592 87.879 64.852 75.834 65.59C52.206 67.036 37.563 109.248 35.668 154.533C36.961 154.137 38.331 153.922 39.752 153.922H98.016Z" fill="white"/>
<path d="M55.3361 245.256V239.922H63.5561C64.2751 246.184 69.5881 250.984 75.9571 250.985C76.0951 250.985 76.2321 250.982 76.3701 250.978C82.6431 250.774 87.6691 245.978 88.3671 239.922H213.336V245.256C213.336 247.465 215.127 249.256 217.336 249.256H243.336C245.545 249.256 247.336 247.465 247.336 245.256V239.922H254.836C257.045 239.922 258.836 238.131 258.836 235.922V197.59C258.836 195.381 257.045 193.59 254.836 193.59H207.726C206.81 194.101 205.894 194.611 204.971 195.098C188.615 203.714 171.338 208.413 153.542 209.113C147.398 213.226 143.203 215.786 142.525 216.196C141.9 216.614 141.091 216.848 140.199 216.848C137.303 216.846 133.198 213.868 128.673 209.215H53.7271H14.0001C12.5581 209.215 11.1661 209.006 9.83606 208.646V235.922C9.83606 238.131 11.6271 239.922 13.8361 239.922H21.3361V245.256C21.3361 247.465 23.1271 249.256 25.3361 249.256H51.3361C53.5451 249.256 55.3361 247.465 55.3361 245.256Z" fill="white"/>
<path d="M156.745 206.945C174.484 205.736 190.381 200.524 204.035 193.328C227.564 180.912 244.715 162.894 256.211 148.072C267.691 133.219 273.518 121.418 273.818 120.824C277.228 113.886 274.369 105.496 267.431 102.086C260.499 98.676 252.119 101.525 248.703 108.451H248.701C248.701 108.451 248.699 108.451 248.691 108.469H248.693C248.334 109.235 238.935 127.569 221.8 145.071C220.556 146.346 219.261 147.613 217.938 148.872C205.787 171.189 175.039 194.438 156.745 206.945Z" fill="white"/>
<path d="M14.002 207.215C14.041 207.215 29.25 207.215 53.727 207.215C73.234 207.215 98.613 207.215 126.795 207.215C120.635 200.439 113.92 190.998 108.499 181.922H39.752C36.669 181.922 33.826 180.909 31.511 179.215C20.401 179.215 14.028 179.215 14.002 179.215C6.268 179.215 0 185.481 0 193.215C0 200.947 6.268 207.217 14.002 207.217V207.215Z" fill="white"/>
<path d="M235.905 107.778C246.174 100.786 248.832 86.7928 241.84 76.5239C234.848 66.255 220.855 63.5985 210.586 70.5905C200.316 77.5826 197.659 91.5753 204.651 101.844C211.643 112.113 225.636 114.77 235.905 107.778Z" fill="white"/>
<path d="M39.752 179.924H107.326C103.284 172.951 100.097 166.332 98.635 161.483C98.315 160.418 97.624 158.125 97.691 155.922H39.752C33.125 155.922 27.752 161.293 27.752 167.922C27.752 174.549 33.125 179.924 39.752 179.924Z" fill="white"/>
<path d="M141.49 214.484C141.49 214.484 240.652 154.455 217.654 119.81C206.744 103.376 179.896 110.064 154.687 121.628C154.58 121.546 154.464 121.476 154.356 121.396C153.268 123.703 149.454 123.71 148.121 123.71C145.491 123.71 141.933 123.282 138.45 122.554L138.451 122.558C138.724 125.214 137.951 127.822 136.265 129.894C136.214 129.957 136.157 130.011 136.105 130.073C136.648 129.982 137.198 129.92 137.759 129.92C139.423 129.92 141.079 130.346 142.548 131.149C151.263 135.905 159.224 138.321 166.204 138.323C171.35 138.309 175.669 137.106 179.794 134.534C183.425 132.257 185.833 129.389 186.944 127.884C187.725 126.837 188.133 126.116 188.21 125.982C189.923 122.664 193.329 120.586 197.091 120.586C198.657 120.586 200.226 120.967 201.628 121.682C204.007 122.897 205.773 124.965 206.597 127.504C207.421 130.045 207.204 132.754 205.989 135.135C204.962 137.074 202.059 141.948 196.473 146.93C191.741 151.184 181.518 158.326 166.317 158.326H166.204C155.821 158.33 144.634 155.092 132.952 148.697C128.116 146.052 126.331 139.964 128.975 135.125C129.311 134.513 129.72 133.96 130.163 133.442C129.953 133.477 129.743 133.517 129.529 133.539C126.408 133.861 123.345 134.025 120.433 134.025H120.361C117.383 134.025 114.524 133.836 111.765 133.493C110.469 136.718 109.749 140.236 109.749 143.924C109.749 144.969 109.812 145.998 109.923 147.012C104.249 150.774 100.835 153.248 100.835 153.248C92.377 158.865 133.029 220.102 141.49 214.484Z" fill="white"/>
<path d="M133.914 146.941C146.051 153.584 156.838 156.328 166.205 156.324C166.242 156.324 166.281 156.324 166.318 156.324C179.412 156.324 189.156 150.814 195.142 145.437C201.21 140.023 203.904 134.794 204.208 134.222C206.218 130.286 204.655 125.47 200.72 123.46C196.794 121.456 191.993 123.007 189.976 126.919C189.97 126.927 189.964 126.937 189.958 126.95C189.839 127.163 189.384 127.956 188.552 129.071C187.087 131.055 184.501 133.94 180.853 136.229C177.181 138.518 172.544 140.305 166.205 140.321C159.973 140.317 151.906 138.534 141.59 132.901C137.713 130.78 132.852 132.206 130.733 136.083C128.613 139.959 130.037 144.822 133.914 146.941Z" fill="white"/>
<path d="M125.685 4V55.996C125.685 58.205 127.476 59.996 129.685 59.996H213.181C215.39 59.996 217.181 58.205 217.181 55.996V4C217.181 1.791 215.39 0 213.181 0H129.685C127.477 0 125.685 1.791 125.685 4ZM179.502 14.32C183.809 12.806 188.527 15.068 190.043 19.375C191.557 23.682 189.293 28.4 184.988 29.916C180.679 31.432 175.961 29.166 174.447 24.861C172.934 20.555 175.195 15.836 179.502 14.32ZM155.887 25.836C157.979 25.375 160.053 26.697 160.514 28.791L161.134 31.602L165.373 30.112L163.557 27.936C162.184 26.29 162.403 23.842 164.049 22.467C165.696 21.094 168.143 21.315 169.518 22.959L175.778 30.461C175.899 30.607 175.993 30.765 176.09 30.921C176.785 31.65 177.345 32.529 177.7 33.541C179.044 37.357 177.036 41.541 173.22 42.883L164.714 45.875C160.896 47.219 156.714 45.211 155.372 41.395C155.202 40.913 155.087 40.425 155.021 39.938L152.932 30.463C152.471 28.369 153.793 26.299 155.887 25.836ZM149.488 5.84H153.238V9.59H149.488V5.84ZM143.654 5.84H147.404V9.59H143.654V5.84ZM137.82 5.84H141.57V9.59H137.82V5.84ZM131.988 5.84H135.738V9.59H131.988V5.84Z" fill="white"/>
<path d="M141.695 111.063C136.191 109.996 131.14 111.119 129.042 113.613C132.377 113.786 135.295 115.579 136.979 118.27L137.194 120.25C137.43 120.225 137.659 120.191 137.893 120.163C137.92 120.239 137.948 120.316 137.974 120.392C144.617 121.9 152.227 122.406 152.633 120.318C152.872 119.084 152.508 117.815 151.685 116.616C152.307 116.354 152.915 116.081 153.513 115.798C164.501 110.588 171.266 101.826 175.316 92.8799C181.102 80.1459 181.604 67.0159 181.608 62.6889C181.608 61.7499 181.585 61.2239 181.585 61.2109L179.588 61.3009L179.586 61.2989C179.588 61.3009 179.609 61.7809 179.607 62.6889C179.614 66.8559 179.096 79.7549 173.494 92.0519C169.487 100.811 163.001 109.244 152.247 114.186C151.605 114.481 150.95 114.764 150.277 115.034C148.298 113.236 145.263 111.755 141.695 111.063Z" fill="white"/>
<path d="M120.363 132.023C120.386 132.023 120.412 132.023 120.437 132.023C123.257 132.023 126.22 131.867 129.328 131.546C133.723 131.091 136.916 127.159 136.461 122.765C136.006 118.37 132.074 115.177 127.678 115.632C125.088 115.902 122.674 116.025 120.438 116.025C111.762 116.013 105.801 114.201 101.463 111.732C97.137 109.248 94.268 106.019 92.166 102.443C87.953 95.3511 87.445 86.6811 87.488 84.4781C87.488 84.1521 87.494 83.9621 87.496 83.9331V83.9311C87.685 79.5311 84.279 75.8021 79.875 75.5971C75.463 75.3901 71.719 78.8021 71.512 83.2161C71.506 83.3271 71.491 83.7651 71.491 84.4781C71.501 87.2851 71.757 94.2011 74.554 102.24C77.318 110.219 82.937 119.586 93.527 125.625C100.527 129.637 109.465 132.023 120.363 132.023Z" fill="white"/>
</g>
<defs>
<clipPath id="clip0_1406_142">
<rect width="275.257" height="250.984" fill="white"/>
</clipPath>
</defs>
</svg>
