<svg width="100" height="100" viewBox="0 0 100 100" fill="none" xmlns="http://www.w3.org/2000/svg">
<path d="M89.979 16.522H80.387V22.157C80.848 22.909 81.119 23.79 81.119 24.737C81.119 27.47 78.904 29.685 76.171 29.685C73.438 29.685 71.223 27.47 71.223 24.737C71.223 23.79 71.494 22.909 71.955 22.157V16.522H28.31V22.157C28.771 22.909 29.042 23.79 29.042 24.737C29.042 27.47 26.827 29.685 24.094 29.685C21.361 29.685 19.146 27.47 19.146 24.737C19.146 23.79 19.417 22.909 19.878 22.157V16.522H10.021C7.24702 16.522 4.99902 18.77 4.99902 21.544V89.367C4.99902 92.141 7.24702 94.389 10.021 94.389H89.979C92.752 94.389 95.001 92.141 95.001 89.367V21.544C95.001 18.771 92.752 16.522 89.979 16.522ZM89.612 74.798L75.925 88.44H10.653V35.369H89.612V74.798Z" fill="white"/>
<path d="M48.708 68.227C49.66 68.227 50.703 68 51.156 67.456L51.202 67.501L41.409 78.654H50.069L57.55 69.904C61.494 65.279 62.855 61.154 62.855 57.481C62.855 50.453 57.188 46.282 50.387 46.282C43.269 46.282 37.873 50.498 37.873 57.163C37.872 63.149 41.408 68.227 48.708 68.227ZM50.204 52.993C53.106 52.993 55.191 54.807 55.191 57.527C55.191 60.111 53.196 62.061 50.204 62.061C47.348 62.061 45.217 60.247 45.217 57.527C45.217 54.898 47.212 52.993 50.204 52.993Z" fill="white"/>
<path d="M26.822 24.9541C26.822 26.3241 25.712 27.4341 24.342 27.4341H23.846C22.476 27.4341 21.366 26.3241 21.366 24.9541V8.09108C21.366 6.72108 22.476 5.61108 23.846 5.61108H24.342C25.712 5.61108 26.822 6.72108 26.822 8.09108V24.9541Z" fill="white"/>
<path d="M78.909 24.9541C78.909 26.3241 77.799 27.4341 76.429 27.4341H75.933C74.563 27.4341 73.453 26.3241 73.453 24.9541V8.09108C73.453 6.72108 74.563 5.61108 75.933 5.61108H76.429C77.799 5.61108 78.909 6.72108 78.909 8.09108V24.9541Z" fill="white"/>
</svg>
