<svg width="96" height="96" viewBox="0 0 96 96" fill="none" xmlns="http://www.w3.org/2000/svg">
<path d="M48 16.5C30.6 16.5 16.5 30.6 16.5 48C16.5 65.4 30.6 79.5 48 79.5C65.4 79.5 79.5 65.4 79.5 48C79.5 30.6 65.4 16.5 48 16.5ZM48 77.5C31.7 77.5 18.5 64.3 18.5 48C18.5 31.7 31.7 18.5 48 18.5C64.3 18.5 77.5 31.7 77.5 48C77.5 64.3 64.3 77.5 48 77.5Z" fill="#4A4E91"/>
<path d="M58.3 41.3001L56.6 42.4001C57.2 43.3001 57.6 44.3001 57.9 45.3001C58.3 46.9001 58.4 48.5001 58 50.1001C57.4 52.8001 55.8 55.1001 53.5 56.5001C51.2 57.9001 48.5 58.5001 45.8 57.9001C43.1 57.3001 40.8 55.7001 39.4 53.4001C37.9 51.1001 37.4 48.4001 38 45.7001C38.6 43.0001 40.2 40.7001 42.5 39.3001C44.5 38.0001 46.8 37.5001 49.2 37.7001L46.4 40.5001L47.8 41.9001L53.2 36.5001L47.8 31.1001L46.4 32.5001L49.5 35.6001C46.7 35.3001 43.9 35.9001 41.5 37.5001C38.7 39.3001 36.8 42.0001 36.2 45.2001C35.6 48.4001 36.1 51.7001 37.9 54.4001C39.7 57.2001 42.4 59.1001 45.6 59.7001C46.5 59.9001 47.4 60.0001 48.2 60.0001C50.5 60.0001 52.8 59.3001 54.8 58.1001C57.6 56.3001 59.5 53.6001 60.1 50.4001C60.5 48.5001 60.5 46.5001 60 44.6001C59.5 43.6001 59 42.4001 58.3 41.3001Z" fill="#4A4E91"/>
</svg>
