<svg width="80" height="80" viewBox="0 0 80 80" fill="none" xmlns="http://www.w3.org/2000/svg">
<circle cx="40" cy="40" r="39.5" fill="white" stroke="#D9D9D9"/>
<path d="M53.6364 46.8182H26.3636C26.002 46.8182 25.6551 46.9618 25.3994 47.2176C25.1437 47.4733 25 47.8202 25 48.1818C25 48.5435 25.1437 48.8903 25.3994 49.1461C25.6551 49.4018 26.002 49.5455 26.3636 49.5455H53.6364C53.998 49.5455 54.3449 49.4018 54.6006 49.1461C54.8563 48.8903 55 48.5435 55 48.1818C55 47.8202 54.8563 47.4733 54.6006 47.2176C54.3449 46.9618 53.998 46.8182 53.6364 46.8182ZM53.6364 52.2727H26.3636C26.002 52.2727 25.6551 52.4164 25.3994 52.6721C25.1437 52.9279 25 53.2747 25 53.6364C25 53.998 25.1437 54.3449 25.3994 54.6006C25.6551 54.8563 26.002 55 26.3636 55H53.6364C53.998 55 54.3449 54.8563 54.6006 54.6006C54.8563 54.3449 55 53.998 55 53.6364C55 53.2747 54.8563 52.9279 54.6006 52.6721C54.3449 52.4164 53.998 52.2727 53.6364 52.2727ZM31.8182 33.1818C31.5485 33.1818 31.2848 33.2618 31.0606 33.4116C30.8363 33.5615 30.6616 33.7744 30.5583 34.0236C30.4551 34.2728 30.4281 34.547 30.4807 34.8115C30.5334 35.076 30.6632 35.319 30.8539 35.5097C31.0447 35.7004 31.2876 35.8303 31.5521 35.8829C31.8167 35.9355 32.0909 35.9085 32.34 35.8053C32.5892 35.7021 32.8022 35.5273 32.952 35.3031C33.1018 35.0788 33.1818 34.8152 33.1818 34.5455C33.1818 34.1838 33.0381 33.8369 32.7824 33.5812C32.5267 33.3255 32.1798 33.1818 31.8182 33.1818ZM50.9091 25H29.0909C28.0059 25 26.9654 25.431 26.1982 26.1982C25.431 26.9654 25 28.0059 25 29.0909V40C25 41.085 25.431 42.1255 26.1982 42.8927C26.9654 43.6599 28.0059 44.0909 29.0909 44.0909H50.9091C51.9941 44.0909 53.0346 43.6599 53.8018 42.8927C54.569 42.1255 55 41.085 55 40V29.0909C55 28.0059 54.569 26.9654 53.8018 26.1982C53.0346 25.431 51.9941 25 50.9091 25V25ZM52.2727 40C52.2727 40.3617 52.1291 40.7085 51.8733 40.9642C51.6176 41.22 51.2707 41.3636 50.9091 41.3636H29.0909C28.7293 41.3636 28.3824 41.22 28.1267 40.9642C27.8709 40.7085 27.7273 40.3617 27.7273 40V29.0909C27.7273 28.7293 27.8709 28.3824 28.1267 28.1267C28.3824 27.8709 28.7293 27.7273 29.0909 27.7273H50.9091C51.2707 27.7273 51.6176 27.8709 51.8733 28.1267C52.1291 28.3824 52.2727 28.7293 52.2727 29.0909V40ZM40 30.4545C39.1909 30.4545 38.4 30.6945 37.7272 31.144C37.0545 31.5935 36.5301 32.2324 36.2205 32.9799C35.9109 33.7274 35.8298 34.55 35.9877 35.3436C36.1455 36.1371 36.5352 36.866 37.1073 37.4382C37.6794 38.0103 38.4083 38.3999 39.2019 38.5578C39.9955 38.7156 40.818 38.6346 41.5655 38.325C42.313 38.0153 42.952 37.491 43.4015 36.8182C43.851 36.1455 44.0909 35.3546 44.0909 34.5455C44.0909 33.4605 43.6599 32.4199 42.8927 31.6527C42.1255 30.8856 41.085 30.4545 40 30.4545ZM40 35.9091C39.7303 35.9091 39.4667 35.8291 39.2424 35.6793C39.0182 35.5294 38.8434 35.3165 38.7402 35.0673C38.637 34.8181 38.6099 34.5439 38.6626 34.2794C38.7152 34.0149 38.8451 33.7719 39.0358 33.5812C39.2265 33.3905 39.4694 33.2606 39.734 33.208C39.9985 33.1554 40.2727 33.1824 40.5218 33.2856C40.771 33.3888 40.984 33.5636 41.1338 33.7879C41.2837 34.0121 41.3636 34.2758 41.3636 34.5455C41.3636 34.9071 41.22 35.254 40.9642 35.5097C40.7085 35.7654 40.3617 35.9091 40 35.9091ZM48.1818 33.1818C47.9121 33.1818 47.6485 33.2618 47.4242 33.4116C47.2 33.5615 47.0252 33.7744 46.922 34.0236C46.8188 34.2728 46.7918 34.547 46.8444 34.8115C46.897 35.076 47.0269 35.319 47.2176 35.5097C47.4083 35.7004 47.6513 35.8303 47.9158 35.8829C48.1803 35.9355 48.4545 35.9085 48.7037 35.8053C48.9528 35.7021 49.1658 35.5273 49.3156 35.3031C49.4655 35.0788 49.5455 34.8152 49.5455 34.5455C49.5455 34.1838 49.4018 33.8369 49.1461 33.5812C48.8903 33.3255 48.5435 33.1818 48.1818 33.1818Z" fill="#FF7691"/>
</svg>
