<svg width="100" height="89" viewBox="0 0 100 89" fill="none" xmlns="http://www.w3.org/2000/svg">
<path d="M90.9497 9.15439C85.613 3.8727 78.5642 0.672376 71.0752 0.130897C63.5863 -0.410582 56.1505 1.74244 50.1094 6.20148C43.7414 1.46499 35.8153 -0.682759 27.9271 0.190733C20.039 1.06423 12.7748 4.89408 7.59734 10.909C2.41989 16.924 -0.286199 24.6773 0.0240007 32.6076C0.334201 40.5379 3.63765 48.0561 9.26912 53.6483L39.2987 83.9282C42.114 86.74 45.9303 88.3193 49.9092 88.3193C53.8882 88.3193 57.7044 86.74 60.5197 83.9282L90.5493 53.6483C93.5069 50.7587 95.8643 47.3131 97.4859 43.5095C99.1076 39.7059 99.9615 35.6193 99.9987 31.4846C100.036 27.3499 99.2556 23.2486 97.7027 19.4164C96.1498 15.5842 93.8548 12.0968 90.9497 9.15439ZM83.8927 46.4912L53.8631 76.5209C53.3978 76.99 52.8443 77.3623 52.2344 77.6164C51.6245 77.8705 50.9703 78.0013 50.3096 78.0013C49.6489 78.0013 48.9947 77.8705 48.3848 77.6164C47.7749 77.3623 47.2214 76.99 46.7561 76.5209L16.7265 46.4912C12.8014 42.479 10.6035 37.0893 10.6035 31.4764C10.6035 25.8636 12.8014 20.4738 16.7265 16.4616C20.7262 12.5126 26.1206 10.2984 31.7413 10.2984C37.362 10.2984 42.7564 12.5126 46.7561 16.4616C47.2214 16.9307 47.7749 17.303 48.3848 17.5571C48.9947 17.8112 49.6489 17.9421 50.3096 17.9421C50.9703 17.9421 51.6245 17.8112 52.2344 17.5571C52.8443 17.303 53.3978 16.9307 53.8631 16.4616C57.971 13.1928 63.1383 11.5504 68.3796 11.8475C73.6209 12.1447 78.5695 14.3606 82.2817 18.0727C85.9938 21.7848 88.2097 26.7334 88.5068 31.9747C88.804 37.216 87.1615 42.3834 83.8927 46.4912Z" fill="#FF7691"/>
</svg>
