<svg width="38" height="38" viewBox="0 0 38 38" fill="none" xmlns="http://www.w3.org/2000/svg">
<circle cx="18.9997" cy="18.6486" r="18.6486" fill="url(#paint0_linear)"/>
<path d="M21.5641 11.8104H16.4358C14.0746 11.8104 12.1621 13.7229 12.1621 16.0841V21.2125C12.1621 23.5736 14.0746 25.4861 16.4358 25.4861H21.5641C23.9253 25.4861 25.8378 23.5736 25.8378 21.2125V16.0841C25.8378 13.7229 23.9253 11.8104 21.5641 11.8104ZM24.5557 21.2125C24.5557 22.8631 23.2148 24.204 21.5641 24.204H16.4358C14.7851 24.204 13.4442 22.8631 13.4442 21.2125V16.0841C13.4442 14.4334 14.7851 13.0925 16.4358 13.0925H21.5641C23.2148 13.0925 24.5557 14.4334 24.5557 16.0841V21.2125Z" fill="white"/>
<path d="M19 15.2298C17.1116 15.2298 15.5811 16.7603 15.5811 18.6487C15.5811 20.5371 17.1116 22.0676 19 22.0676C20.8884 22.0676 22.4189 20.5371 22.4189 18.6487C22.4189 16.7603 20.8884 15.2298 19 15.2298ZM19 20.7855C17.822 20.7855 16.8631 19.8266 16.8631 18.6487C16.8631 17.4708 17.822 16.5119 19 16.5119C20.1779 16.5119 21.1368 17.4708 21.1368 18.6487C21.1368 19.8266 20.1779 20.7855 19 20.7855Z" fill="white"/>
<path d="M22.6755 15.4301C22.9278 15.4301 23.1322 15.2256 23.1322 14.9733C23.1322 14.7211 22.9278 14.5166 22.6755 14.5166C22.4232 14.5166 22.2188 14.7211 22.2188 14.9733C22.2188 15.2256 22.4232 15.4301 22.6755 15.4301Z" fill="white"/>
<defs>
<linearGradient id="paint0_linear" x1="3.76541" y1="33.8833" x2="34.234" y2="3.41393" gradientUnits="userSpaceOnUse">
<stop stop-color="#FFC107"/>
<stop offset="0.507" stop-color="#F44336"/>
<stop offset="0.99" stop-color="#9C27B0"/>
</linearGradient>
</defs>
</svg>