<svg width="95" height="95" viewBox="0 0 95 95" fill="none" xmlns="http://www.w3.org/2000/svg">
<path d="M68.4261 30.2439C63.1891 27.3969 65.9871 20.8879 65.9871 20.8879C65.9871 20.8879 61.8481 27.1829 65.4201 31.0279C68.9911 34.8739 71.2841 33.8169 74.7041 40.7789C74.7041 40.7789 73.6611 33.0899 68.4261 30.2439Z" fill="#4A4E91"/>
<path d="M65.3009 33.9189C61.1079 32.1409 62.7529 26.9819 62.7529 26.9819C62.7529 26.9819 60.0699 32.0749 63.0719 34.7379C66.0739 37.4009 67.7399 36.4269 70.8579 41.4699C70.8579 41.4699 69.4969 35.6999 65.3009 33.9189Z" fill="#4A4E91"/>
<path d="M68.489 42.7169C67.465 42.7169 66.635 43.1449 66.635 43.6739V52.8819C66.635 53.4099 67.465 53.8389 68.489 53.8389C69.513 53.8389 70.343 53.4109 70.343 52.8819V43.6739C70.342 43.1459 69.513 42.7169 68.489 42.7169Z" fill="#4A4E91"/>
<path d="M72.8249 42.7169C71.8009 42.7169 70.9709 43.1449 70.9709 43.6739V52.8819C70.9709 53.4099 71.8009 53.8389 72.8249 53.8389C73.8489 53.8389 74.6789 53.4109 74.6789 52.8819V43.6739C74.6789 43.1459 73.8489 42.7169 72.8249 42.7169Z" fill="#4A4E91"/>
<path d="M78.483 18.461C62.016 1.99397 35.317 1.99397 18.85 18.46C2.38301 34.927 2.38301 61.626 18.85 78.093C35.317 94.56 62.016 94.56 78.483 78.093C94.95 61.626 94.95 34.928 78.483 18.461ZM23.358 73.586C10.142 60.369 9.44001 39.398 21.218 25.336L71.608 75.726C57.545 87.503 36.575 86.802 23.358 73.586ZM76.115 71.217L25.724 20.829C39.786 9.05097 60.757 9.75097 73.974 22.969C87.191 36.185 87.893 57.155 76.115 71.217Z" fill="#4A4E91"/>
<path d="M20.553 44.7169V51.8379C20.553 52.9419 21.449 53.8379 22.553 53.8379H49.012L37.892 42.7169H22.553C21.449 42.7169 20.553 43.6129 20.553 44.7169Z" fill="#4A4E91"/>
<path d="M63.859 42.7169H48.321L59.442 53.8379H63.859C64.963 53.8379 65.859 52.9419 65.859 51.8379V44.7169C65.859 43.6129 64.964 42.7169 63.859 42.7169Z" fill="#4A4E91"/>
</svg>
