<svg width="50" height="50" viewBox="0 0 50 50" fill="none" xmlns="http://www.w3.org/2000/svg">
<path d="M19.3 23.6C19.3 25.1 18.1 26.3 16.6 26.3C15.1 26.3 14 25 14 23.6C14 22.2 15.2 20.9 16.7 20.9C18.2 20.9 19.3 22.1 19.3 23.6ZM30.1 20.8C28.6 20.8 27.4 22 27.4 23.5C27.4 25 28.6 26.2001 30.1 26.2001C31.6 26.2001 32.8 25 32.8 23.5C32.8 22 31.5 20.8 30.1 20.8ZM17.3 32.3C17.4 32.5 19.5 37 23.3 37C25.9 37 28.2 34.6 29.5 32.3M46.5 25C46.5 36.4 36.9 45.7001 25 45.7001C13.1 45.7001 3.5 36.4 3.5 25C3.5 13.6 13.2 4.30005 25 4.30005C36.8 4.30005 46.5 13.6 46.5 25ZM44.1 26.9C39.1 26.4 36.2 13.5 36.2 13.5L34.9 14.6C32.8 16.8 31.2 15.5 30.3 13.8L29.7 12.6L28.7 14C26.7 16.9 24 14.8 23.3 12.8L22.9 12L20.6 14.2C18.3 16.9 16.3 15.1 15.7 12.9L15.6 12.4C15.6 12.4 13.5 14.9 11.6 16.9C10.4 18.2 8.3 18.4 7.1 18.3C6.3 20.4 5.8 22.6 5.8 25C5.8 35.1 14.4 43.3 25 43.3C34.9 43.3 43 36.1 44.1 26.9Z" fill="#4A4E91"/>
</svg>
