<svg width="100" height="100" viewBox="0 0 100 100" fill="none" xmlns="http://www.w3.org/2000/svg">
<path d="M50 19H52V16H55V14H52V11H50V14H47V16H50V19Z" fill="#FFD78A"/>
<path d="M85.2641 89.063L83.0441 82.134C80.4951 73.85 74.3631 72.61 71.8721 72.458C70.2501 72.479 64.6531 72.156 63.1341 71.822C62.3341 71.646 60.7501 70.208 60.0481 68.782C63.4201 69.826 67.2601 70.132 70.5831 70.132C74.9871 70.132 78.4791 69.6 78.7441 69.559C79.1901 69.489 79.5271 69.126 79.5771 68.678C79.6271 68.23 79.3631 67.801 78.9431 67.635C78.8801 67.611 72.7371 65.004 73.5481 49.492C74.4221 32.653 66.9371 25.086 64.9311 23.371L69.4271 12.771C69.6021 12.358 69.4811 11.879 69.1301 11.599C57.8451 2.57796 42.8431 2.57996 31.8001 11.606C31.4581 11.885 31.3401 12.356 31.5091 12.763L35.9341 23.44C33.8451 25.283 26.6591 32.874 27.5311 49.493C28.3431 65.004 22.1891 67.61 22.1401 67.63C21.7101 67.785 21.4411 68.212 21.4851 68.667C21.5291 69.122 21.8761 69.488 22.3281 69.559C22.5911 69.6 26.0201 70.116 30.3671 70.116C33.7041 70.116 37.5801 69.809 40.9811 68.752C40.2781 70.191 39.2971 71.38 37.9401 71.789C37.9321 71.791 37.9271 71.798 37.9191 71.8C36.6891 71.95 32.4661 72.439 29.4731 72.439C27.5281 72.439 20.9201 73.198 17.5491 82.972L15.5701 89.059C15.3991 89.584 15.6871 90.149 16.2121 90.32C16.3161 90.353 16.4191 90.369 16.5221 90.369C16.9441 90.369 17.3351 90.1 17.4731 89.679L19.4461 83.609C22.3801 75.101 27.8631 74.44 29.4731 74.44C29.7001 74.44 29.9331 74.437 30.1711 74.432L36.8101 79.929L33.5981 83.694C33.4051 83.922 33.3231 84.222 33.3731 84.516C33.4251 84.81 33.6051 85.066 33.8641 85.212L50.2531 94.521C50.4411 94.78 50.7271 95.001 51.0381 95.001C51.0441 95.001 51.0511 95.001 51.0571 95.001C51.3631 95.001 51.6401 94.782 51.8231 94.524L68.3951 85.215C68.6561 85.069 68.8361 84.813 68.8891 84.519C68.9421 84.224 68.8601 83.921 68.6651 83.694L65.4531 79.929L72.0391 74.477C74.4991 74.684 79.0651 76.009 81.1351 82.735L83.3591 89.674C83.4951 90.099 83.8881 90.369 84.3111 90.369C84.4121 90.369 84.5151 90.353 84.6161 90.321C85.1431 90.152 85.4331 89.589 85.2641 89.063ZM34.6731 42.985C34.4751 41.974 34.3721 40.967 34.3571 39.971C39.8891 39.699 45.0161 37.043 48.9861 33.107C53.0851 38.81 59.4731 42.601 66.4581 42.962C66.4551 42.976 66.4541 42.99 66.4521 43.005C64.5091 54.105 57.3841 63.135 50.5691 63.135C43.9761 63.135 36.8451 54.096 34.6731 42.985ZM39.2771 28.11C39.7021 27.837 41.9331 26.488 45.3751 25.686C45.9281 27.689 46.7171 29.494 47.8381 31.34C44.2341 35.001 39.5501 37.263 34.4691 37.793C34.9011 34.174 36.5491 30.801 39.2771 28.11ZM61.6801 27.91C65.2481 31.349 67.0181 36.04 66.6881 41.025C59.8551 40.479 53.6361 36.773 49.9151 30.965C48.7101 29.097 47.9061 27.308 47.3421 25.319C48.3401 25.177 49.4061 25.086 50.5431 25.086C55.8611 25.086 60.8861 27.509 61.6801 27.91ZM71.5511 49.388C70.9701 60.506 73.8191 65.616 75.9851 67.867C72.1451 68.222 64.6051 68.54 59.2441 66.383C59.2141 66.371 59.1821 66.375 59.1511 66.366C58.5161 64.001 58.4321 62.031 58.4301 62.012C63.1471 58.233 67.0181 51.373 68.4231 43.352C69.5111 37.162 67.6971 31.197 63.4521 26.864L64.1001 25.336C66.3291 27.507 72.3111 34.754 71.5511 49.388ZM67.2861 12.697L61.7601 25.729C59.8401 24.852 55.3681 23.085 50.5431 23.085C45.2501 23.085 40.3621 25.213 39.1141 25.888L33.6451 12.693C43.6851 4.89496 57.0261 4.89796 67.2861 12.697ZM25.0951 67.861C27.2631 65.607 30.1111 60.498 29.5301 49.387C28.7731 34.968 34.4871 27.717 36.7591 25.428L37.4591 27.116C33.2741 31.505 31.5401 37.386 32.7111 43.369C34.2511 51.245 37.9931 57.938 42.5541 61.753C42.5691 61.835 42.5721 61.976 42.5691 62.064C42.5311 63.029 42.3341 64.667 41.8741 66.335C41.8401 66.344 35.6871 69.083 25.0951 67.861ZM44.4851 63.178C46.4561 64.425 48.5191 65.134 50.5701 65.134C52.5971 65.134 54.6191 64.49 56.5451 63.34C56.8151 65.781 57.8151 71.239 61.3761 73.218L51.0021 91.836L39.6671 73.199C43.2801 71.16 44.2411 65.526 44.4851 63.178ZM38.9891 80.454C39.1631 80.25 39.2481 79.985 39.2241 79.719C39.2011 79.451 39.0721 79.205 38.8661 79.034L33.1281 74.283C34.9741 74.148 36.7071 73.958 37.6951 73.841L48.1051 91L35.9041 84.07L38.9891 80.454ZM63.2741 80.454L66.3551 84.065L53.7001 91.174L63.3111 73.855C64.5791 73.996 66.8531 74.228 69.0501 74.354L63.3971 79.034C63.1911 79.205 63.0621 79.451 63.0391 79.719C63.0161 79.985 63.1011 80.25 63.2741 80.454Z" fill="#FFD78A"/>
</svg>
