<svg width="100" height="100" viewBox="0 0 100 100" fill="none" xmlns="http://www.w3.org/2000/svg">
<path fill-rule="evenodd" clip-rule="evenodd" d="M58.995 54.206C59.181 53.845 59.414 53.368 59.666 52.9C61.1 50.232 63.424 48.817 66.3 48.169C67.632 47.869 68.953 47.772 70.287 48.17C72.099 48.711 73.391 49.852 74.139 51.566C74.86 53.22 75.115 54.955 74.73 56.748C74.441 58.091 73.668 59.115 72.609 59.949C71.15 61.097 69.454 61.673 67.654 62.011C66.863 62.159 66.063 62.314 65.3 62.565C64.141 62.949 63.896 63.548 64.492 64.583C65.285 65.962 66.53 66.78 68.08 67.054C69.094 67.233 71.011 65.958 71.283 64.956C71.386 64.578 71.287 64.129 71.212 63.726C71.155 63.431 70.976 63.162 70.87 62.876C70.653 62.295 70.786 61.871 71.258 61.577C71.736 61.281 72.202 61.329 72.587 61.825C73.951 63.595 74.074 65.851 72.179 67.484C70.008 69.355 66.666 69.147 64.385 67.059C63.418 66.173 62.734 65.137 62.603 63.798C62.494 62.674 62.942 61.819 63.963 61.363C64.694 61.037 65.489 60.857 66.252 60.602C67.56 60.164 68.927 59.846 70.159 59.248C72.865 57.938 73.442 54.359 71.401 52.121C69.476 50.012 66.459 49.675 64.089 51.356C62.5 52.484 61.172 53.856 60.366 55.676C60.027 56.443 59.763 56.551 58.921 56.356C58.025 56.145 57.131 55.919 56.238 55.69C53.393 54.961 50.55 54.967 47.688 55.623C45.735 56.07 43.797 56.527 42.028 57.524C40.667 58.292 39.52 59.249 38.723 60.817C39.563 60.986 40.291 61.196 41.033 61.267C42.407 61.401 43.789 61.47 45.169 61.533C46.106 61.576 46.985 61.348 47.832 60.924C48.446 60.615 49.102 60.382 49.754 60.161C50.689 59.843 51.556 60.006 52.391 60.543C52.642 60.704 53.02 60.74 53.331 60.719C54.671 60.631 56.009 60.404 57.346 60.412C59.145 60.424 60.166 61.32 60.583 62.969C60.93 64.346 60.308 65.369 59.337 66.213C58.852 66.638 58.275 66.992 57.684 67.256C55.168 68.374 52.526 69.087 49.769 69.102C47.587 69.113 45.403 68.879 43.22 68.759C42.911 68.741 42.603 68.744 42.296 68.744C39.601 68.743 36.903 68.756 34.208 68.739C31.814 68.725 30.64 67.791 30.195 65.465C29.993 64.416 29.906 63.335 29.866 62.265C29.663 56.776 30.573 51.399 31.547 46.028C31.966 43.71 32.519 41.445 33.621 39.34C36.037 34.726 39.842 32.215 44.996 31.507C48.29 31.054 51.44 31.508 54.522 32.534C56.937 33.339 58.963 34.812 60.559 36.821C62.64 39.443 63.948 42.388 64.205 45.756C64.227 46.06 64.242 46.375 64.187 46.672C64.083 47.217 63.593 47.647 63.087 47.704C62.483 47.772 61.89 47.481 61.715 46.891C61.564 46.388 61.552 45.837 61.521 45.305C61.238 40.482 58.957 36.917 54.689 34.7C52.9 33.771 50.881 33.516 48.888 33.328C48.332 33.276 47.695 33.349 47.103 33.457C45.78 33.639 44.704 33.97 43.436 34.28C39.554 35.229 36.971 38.014 35.319 41.55C34.315 43.7 33.944 46.023 33.507 48.323C32.917 51.415 32.391 54.512 32.257 57.673C32.157 60.061 32.299 62.419 32.58 64.779C32.726 65.989 33.313 66.784 34.597 66.919C35.398 67.002 36.197 67.132 36.997 67.156C40.341 67.254 43.692 67.217 47.026 67.432C49.391 67.584 51.723 67.651 53.974 66.874C55.27 66.427 56.488 65.75 57.721 65.136C58.017 64.99 58.281 64.715 58.476 64.441C59.059 63.62 58.715 62.661 57.726 62.502C57.098 62.401 56.426 62.498 55.784 62.574C55.099 62.658 54.43 62.869 53.744 62.938C52.854 63.026 51.99 62.979 51.259 62.297C51.049 62.1 50.626 62.057 50.308 62.074C49.974 62.091 49.64 62.244 49.322 62.374C47.228 63.232 45.059 63.264 42.857 63.003C41.828 62.88 40.793 62.82 39.764 62.702C39.269 62.644 38.777 62.542 38.296 62.411C36.743 61.988 36.46 61.293 37.222 59.874C38.781 56.978 41.279 55.218 44.265 54.04C47.096 52.925 50.033 52.778 53.001 53.173C54.97 53.436 56.918 53.842 58.995 54.206Z" fill="#FFD78A"/>
<path fill-rule="evenodd" clip-rule="evenodd" d="M40.832 10.125C40.945 9.94601 41.053 9.68101 41.24 9.49901C43.457 7.33201 46.118 6.15901 49.219 6.16901C52.935 6.18201 55.905 7.80801 57.731 11.002C60.261 15.426 60.107 19.968 57.201 24.169C55.462 26.682 53.021 28.499 49.891 29.024C48.896 29.191 47.821 29.091 46.812 28.928C43.818 28.444 41.265 27.147 39.49 24.584C39.25 24.238 39.027 23.874 38.847 23.494C38.521 22.81 38.626 22.299 39.091 22.089C39.576 21.869 40.093 22.053 40.434 22.62C41.054 23.648 41.75 24.599 42.74 25.317C43.783 26.075 44.885 26.675 46.204 26.744C46.576 26.764 46.961 26.782 47.325 26.715C49.422 26.332 51.529 25.855 53.085 24.294C56.648 20.716 57.935 14.974 54.197 10.66C52.016 8.14401 48.631 7.46601 45.359 8.90501C43.777 9.60101 42.466 10.647 41.482 12.081C41.353 12.271 41.232 12.474 41.072 12.637C40.562 13.155 39.806 13.066 39.588 12.393C39.361 11.7 39.129 11.082 38.369 10.845C37.457 10.561 36.555 10.567 35.666 10.949C33.23 11.995 32.116 14.982 33.308 17.338C33.967 18.639 35.051 19.355 36.508 19.475C37.031 19.518 37.52 19.587 37.656 20.21C37.824 20.975 37.449 21.46 36.625 21.516C34.746 21.644 32.127 20.645 31.107 17.623C30.147 14.778 31.304 11.43 33.859 9.83901C36 8.50601 38.182 8.34701 40.328 9.88601C40.415 9.94901 40.525 9.98101 40.832 10.125Z" fill="#FFD78A"/>
<path fill-rule="evenodd" clip-rule="evenodd" d="M60.753 86.496C60.829 84.463 60.958 82.429 60.964 80.396C60.969 78.362 60.833 76.329 60.788 74.293C60.754 72.679 60.736 71.063 60.77 69.448C60.781 68.921 60.937 68.385 61.105 67.878C61.271 67.38 61.745 67.182 62.222 67.362C62.704 67.545 62.741 67.903 62.659 68.389C62.499 69.327 62.352 70.284 62.345 71.234C62.307 75.385 62.733 79.506 63.207 83.625C63.449 85.719 63.603 87.825 63.791 89.925C63.848 90.535 63.944 91.145 63.936 91.754C63.922 92.802 63.343 93.431 62.453 93.467C61.526 93.504 60.91 92.972 60.832 91.915C60.75 90.806 60.763 89.686 60.764 88.57C60.765 87.88 60.822 87.189 60.854 86.499C60.819 86.499 60.786 86.498 60.753 86.496Z" fill="#FFD78A"/>
<path fill-rule="evenodd" clip-rule="evenodd" d="M36.535 73.657C36.256 75.705 35.941 77.748 35.701 79.801C35.451 81.93 35.219 84.064 35.074 86.201C34.929 88.344 34.908 90.493 34.826 92.639C34.795 93.428 34.349 93.909 33.75 93.826C33.207 93.751 32.932 93.244 32.958 92.511C33.007 91.169 32.963 89.823 33.055 88.484C33.251 85.619 33.484 82.755 33.752 79.896C33.955 77.724 34.236 75.558 34.49 73.391C34.525 73.088 34.592 72.787 34.666 72.491C34.789 72.012 35.135 71.785 35.604 71.808C36.084 71.832 36.377 72.133 36.428 72.61C36.465 72.952 36.436 73.3 36.436 73.646C36.469 73.649 36.502 73.653 36.535 73.657Z" fill="#FFD78A"/>
</svg>
