<svg width="100" height="100" viewBox="0 0 100 100" fill="none" xmlns="http://www.w3.org/2000/svg">
<path d="M28.218 5C26.08 5 24.346 6.733 24.346 8.872V21.777C24.346 23.915 26.079 25.649 28.218 25.649C30.357 25.649 32.09 23.916 32.09 21.777V8.872C32.089 6.733 30.356 5 28.218 5ZM71.119 5C68.981 5 67.247 6.733 67.247 8.872V21.777C67.247 23.915 68.98 25.649 71.119 25.649C73.257 25.649 74.991 23.916 74.991 21.777V8.872C74.991 6.733 73.257 5 71.119 5ZM64.489 13.181H34.847V16.209H64.489V13.181ZM87.113 15.939V92.242C87.113 93.765 85.878 95 84.355 95H15.645C14.122 95 12.887 93.765 12.887 92.242V15.939C12.887 14.416 14.122 13.181 15.645 13.181H21.587V16.209H15.645V37.934H84.325V16.209H77.749V13.181H84.355C85.878 13.181 87.113 14.416 87.113 15.939ZM84.355 41.216H84.326V40.304H15.646V41.216V92.242H84.355V41.216ZM39.049 50.866H43.451V55.268V83.711H39.049V55.268H35.453V50.866H39.049ZM64.547 50.866V55.268V83.711H60.145V55.268H56.549V50.866H60.145H64.547Z" fill="#FFD78A"/>
</svg>
