<svg width="100" height="100" viewBox="0 0 100 100" fill="none" xmlns="http://www.w3.org/2000/svg">
<path d="M37.8489 56.2403V54.1856L39.7754 52.4884C43.0325 49.6515 44.6149 48.0212 44.661 46.3235C44.661 45.1397 43.927 44.2019 42.2067 44.2019C40.9223 44.2019 39.7983 44.8272 39.0186 45.4079L38.0325 42.9733C39.1563 42.147 40.8995 41.4771 42.9178 41.4771C46.2895 41.4771 48.1473 43.3978 48.1473 46.0333C48.1473 48.4679 46.3354 50.4112 44.1793 52.2874L42.8032 53.404V53.4487H48.4225V56.2407H37.8489V56.2403Z" fill="#FFD78A"/>
<path d="M56.7483 56.2402V52.7781H50.1428V50.567L56.3036 41.4766H59.9944L60.0508 50.232H61.8399V52.7781H60.0508V56.2402H56.7483ZM56.7483 50.232V47.0156C56.7483 46.1447 56.7942 45.2512 56.8631 44.3131H56.7711C56.2895 45.2512 55.8997 46.1 55.3952 47.0156L53.3997 50.1873V50.232H56.7483Z" fill="#FFD78A"/>
<path d="M78.4309 50.9542C78.2026 50.9542 77.9737 50.8698 77.795 50.7001L64.8288 38.3661C64.5553 38.106 64.4676 37.7056 64.6079 37.3552C64.7481 37.0048 65.0874 36.7749 65.4647 36.7749H90.2588C90.6286 36.7749 90.9627 36.9956 91.1079 37.3356C91.2526 37.6757 91.1807 38.0696 90.9249 38.3364L79.0967 50.6702C78.9161 50.8589 78.6739 50.9542 78.4309 50.9542ZM67.7737 38.6204L78.4012 48.7296L88.0958 38.6204H67.7737Z" fill="#FFD78A"/>
<path d="M82.2262 38.6837C82.2239 38.6837 82.2217 38.6837 82.2192 38.6837L73.8071 38.6204C73.4307 38.6175 73.0938 38.3864 72.9557 38.0364C69.1674 28.4395 59.9958 22.2386 49.5891 22.2386C39.1827 22.2386 30.0106 28.4397 26.2223 38.0364C26.084 38.3864 25.7473 38.6175 25.371 38.6204L16.9586 38.6837C16.9563 38.6837 16.954 38.6837 16.9516 38.6837C16.6622 38.6837 16.3891 38.5478 16.2147 38.3163C16.0389 38.0831 15.9838 37.7802 16.0665 37.5001C18.1626 30.386 22.5749 23.9954 28.4905 19.5054C34.5946 14.8724 41.8903 12.4233 49.5889 12.4233C57.2876 12.4233 64.5833 14.8724 70.6876 19.5054C76.6032 23.9954 81.0153 30.3858 83.1112 37.5001C83.1938 37.7802 83.1389 38.0829 82.9631 38.3163C82.7887 38.5478 82.5159 38.6837 82.2262 38.6837ZM74.4356 36.7796L80.9661 36.8286C76.4323 23.2827 63.9766 14.269 49.5889 14.269C35.2014 14.269 22.7456 23.2827 18.212 36.8286L24.7422 36.7796C26.7266 32.0772 30.0036 28.0624 34.2497 25.1413C38.7649 22.0351 44.0692 20.3933 49.5891 20.3933C55.1092 20.3933 60.4133 22.0351 64.9286 25.1413C69.1747 28.0624 72.4514 32.077 74.4356 36.7796Z" fill="#FFD78A"/>
<path d="M50.411 87.5764C42.7147 87.5764 35.4108 85.1191 29.2887 80.4705C23.3574 75.9666 18.9533 69.5838 16.8879 62.4973C16.8069 62.2195 16.8608 61.9199 17.0336 61.6879C17.2065 61.4559 17.4778 61.3182 17.7668 61.3162L26.1791 61.2529C26.5549 61.2563 26.9026 61.4809 27.0432 61.8342C30.9006 71.5096 40.0731 77.7615 50.411 77.7615C60.7639 77.7615 69.9111 71.5355 73.7145 61.9004C73.8535 61.5479 74.194 61.3164 74.5729 61.3164H83.0485C83.3387 61.3164 83.6123 61.4531 83.7865 61.6855C83.9608 61.918 84.0154 62.2186 83.9342 62.4975C81.8686 69.584 77.4647 75.967 71.5334 80.4707C65.4113 85.1191 58.1074 87.5764 50.411 87.5764ZM19.0254 63.1523C23.4729 76.5061 36.2045 85.7309 50.4112 85.7309C64.6153 85.7309 77.344 76.5117 81.7938 63.1617H75.193C73.2061 67.8721 69.942 71.8947 65.7225 74.8246C61.2168 77.9533 55.9223 79.6066 50.4112 79.6066C44.8988 79.6066 39.6014 77.9504 35.0918 74.8164C30.8678 71.8813 27.586 67.8406 25.5703 63.1031L19.0254 63.1523Z" fill="#FFD78A"/>
<path d="M34.6022 63.1617C34.601 63.1617 34.5995 63.1619 34.5985 63.1617C34.5977 63.1617 34.5969 63.1617 34.5961 63.1617L9.73873 63.0985C9.36841 63.0975 9.03482 62.8754 8.89087 62.5344C8.74693 62.1934 8.82076 61.7992 9.07837 61.5336L20.9063 49.326C21.2573 48.9637 21.8344 48.9506 22.2014 49.2963L35.1829 61.5219C35.3915 61.6908 35.5247 61.9492 35.5247 62.2389C35.5249 62.7485 35.1118 63.1617 34.6022 63.1617ZM11.9145 61.2586L32.2665 61.3104L21.5985 51.2639L11.9145 61.2586Z" fill="#FFD78A"/>
</svg>
