<svg width="100" height="100" viewBox="0 0 100 100" fill="none" xmlns="http://www.w3.org/2000/svg">
<g clip-path="url(#clip0_1414_83)">
<path d="M50 0C40.1109 0 30.444 2.93245 22.2215 8.42652C13.9991 13.9206 7.59043 21.7295 3.80604 30.8658C0.0216641 40.0021 -0.968502 50.0555 0.960758 59.7545C2.89002 69.4535 7.65206 78.3627 14.6447 85.3553C21.6373 92.3479 30.5464 97.11 40.2455 99.0392C49.9445 100.968 59.9979 99.9783 69.1342 96.194C78.2705 92.4096 86.0794 86.0009 91.5735 77.7785C97.0675 69.556 100 59.8891 100 50C100 36.7392 94.7322 24.0215 85.3553 14.6447C75.9785 5.26784 63.2608 0 50 0ZM50 96.88C40.7276 96.882 31.6628 94.1342 23.9522 88.9841C16.2415 83.8341 10.2312 76.5131 6.68142 67.9471C3.13165 59.3811 2.20184 49.9548 4.00959 40.8603C5.81733 31.7658 10.2814 23.4117 16.8373 16.8544C23.3932 10.2971 31.7464 5.8312 40.8405 4.02152C49.9346 2.21183 59.3611 3.13963 67.9279 6.68757C76.4947 10.2355 83.8169 16.2442 88.9686 23.9538C94.1203 31.6634 96.87 40.7276 96.87 50C96.8541 62.4267 91.9113 74.3401 83.1252 83.1281C74.3391 91.9161 62.4267 96.8615 50 96.88Z" fill="#FFD78A"/>
<path d="M77.0799 35.4H63.4999V22.93C63.4973 21.2723 62.8383 19.6831 61.667 18.51C60.4958 17.3369 58.9076 16.6753 57.2499 16.67H42.7299C41.0722 16.6753 39.4841 17.3369 38.3128 18.51C37.1416 19.6831 36.4826 21.2723 36.4799 22.93V35.4H22.9199C21.2622 35.4053 19.6741 36.0669 18.5028 37.24C17.3316 38.4131 16.6726 40.0023 16.6699 41.66V56.17C16.6752 57.826 17.3354 59.4127 18.5063 60.5836C19.6773 61.7546 21.2639 62.4148 22.9199 62.42H36.4699V77.08C36.4726 78.7378 37.1316 80.327 38.3028 81.5001C39.4741 82.6732 41.0622 83.3348 42.7199 83.34H57.2399C58.8976 83.3348 60.4858 82.6732 61.657 81.5001C62.8283 80.327 63.4873 78.7378 63.4899 77.08V62.42H77.0799C78.7359 62.4148 80.3226 61.7546 81.4935 60.5836C82.6645 59.4127 83.3247 57.826 83.3299 56.17V41.66C83.3273 40.0023 82.6683 38.4131 81.497 37.24C80.3258 36.0669 78.7376 35.4053 77.0799 35.4ZM80.1999 56.17C80.1999 56.9967 79.8729 57.7898 79.2903 58.3762C78.7076 58.9627 77.9166 59.2948 77.0899 59.3H60.3799V77.08C60.3773 77.9111 60.0453 78.7072 59.4567 79.2939C58.8681 79.8806 58.071 80.21 57.2399 80.21H42.7299C41.9033 80.2048 41.1123 79.8727 40.5296 79.2862C39.9469 78.6998 39.6199 77.9067 39.6199 77.08V59.3H22.9199C22.0889 59.3 21.2917 58.9706 20.7031 58.3839C20.1146 57.7972 19.7826 57.0011 19.7799 56.17V41.66C19.7826 40.829 20.1146 40.0329 20.7031 39.4462C21.2917 38.8595 22.0889 38.53 22.9199 38.53H39.6199V22.93C39.6199 22.1024 39.9466 21.3083 40.529 20.7203C41.1114 20.1323 41.9024 19.798 42.7299 19.79H57.2399C58.0727 19.79 58.8714 20.1209 59.4602 20.7097C60.0491 21.2986 60.3799 22.0973 60.3799 22.93V38.53H77.0799C77.9066 38.5353 78.6976 38.8674 79.2803 39.4538C79.8629 40.0403 80.1899 40.8334 80.1899 41.66V56.17H80.1999Z" fill="#FFD78A"/>
</g>
<defs>
<clipPath id="clip0_1414_83">
<rect width="100" height="100" fill="white"/>
</clipPath>
</defs>
</svg>
