<svg width="21" height="21" viewBox="0 0 21 21" fill="none" xmlns="http://www.w3.org/2000/svg">
<g clip-path="url(#clip0_209_31)">
<path d="M10.5 0.34375C4.89062 0.34375 0.34375 4.89062 0.34375 10.5C0.34375 16.1094 4.89062 20.6562 10.5 20.6562C16.1094 20.6562 20.6562 16.1094 20.6562 10.5C20.6562 4.89062 16.1094 0.34375 10.5 0.34375ZM16.1703 7.61484L8.75938 15.025C8.57344 15.2102 8.27266 15.2102 8.08672 15.025L7.9375 14.8758L7.93672 14.8766L3.85937 10.7703C3.67344 10.5844 3.67344 10.2828 3.85937 10.0969L4.87031 9.08672C5.05625 8.90078 5.35781 8.90078 5.54375 9.08672L8.42578 11.9898L14.4852 5.93047C14.6711 5.74453 14.9727 5.74453 15.1586 5.93047L16.1695 6.94141C16.3563 7.12656 16.3562 7.42813 16.1703 7.61484Z" fill="#FAA916"/>
</g>
<defs>
<clipPath id="clip0_209_31">
<rect width="21" height="21" fill="white"/>
</clipPath>
</defs>
</svg>
