<svg width="100" height="100" viewBox="0 0 100 100" fill="none" xmlns="http://www.w3.org/2000/svg">
<path d="M73.453 10.7181C63.394 4.05308 51.101 2.09808 38.84 5.21608C25.995 8.48208 15.168 16.8781 9.13403 28.2531C-4.73197 54.3951 13.664 78.0151 24.746 85.3591C32.66 90.6031 41.091 93.2781 49.527 93.2781C52.435 93.2781 55.345 92.9601 58.234 92.3191C70.324 89.6381 81.689 81.2531 88.638 69.8931C98.962 53.0161 95.323 25.2101 73.453 10.7181ZM86.966 68.8711C80.29 79.7861 69.39 87.8361 57.81 90.4061C47.079 92.7881 36.018 90.4781 25.829 83.7241C16.818 77.7541 2.75603 60.5361 6.87903 40.1761C7.44903 39.3901 10.364 35.5951 13.392 35.8721C15.253 36.0391 16.927 37.7791 18.366 41.0431C19.632 43.9151 20.347 46.6761 21.038 49.3451C22.907 56.5661 24.439 62.4841 35.83 62.4841C37.357 62.4841 39.072 62.3711 40.978 62.1481C40.198 63.9061 39.731 65.8581 39.575 67.9951C38.964 67.9321 38.352 67.9141 37.758 67.9621C36.453 68.0711 34.826 68.7681 33.252 69.4411C32.053 69.9541 29.247 71.1471 28.92 70.6391C27.373 68.2351 26.135 66.6991 24.75 66.4661C24.138 66.3601 23.543 66.5221 23.027 66.9271C21.742 67.9311 22.232 70.1721 22.798 72.7671C23.041 73.8811 23.293 75.0321 23.373 75.9861C23.488 77.3641 24.165 78.5841 25.186 79.2501C25.908 79.7201 26.702 79.8431 27.427 79.5931C27.677 79.5081 27.999 79.1491 28.373 79.0131C30.087 78.3931 33.257 77.0001 34.8 77.0001C34.813 77.0001 34.828 77.0001 34.841 77.0001C35.26 77.0001 35.661 77.6941 36.457 78.6231C37.661 80.0301 39.481 82.2771 43.365 84.4161C44.709 85.1561 46.261 85.5631 47.937 85.5631C55.138 85.5631 64.654 79.1871 69.98 69.9351C76.726 58.2201 78.877 48.9151 76.558 41.4591C76.439 41.0771 76.433 40.6791 76.538 40.2931C78.331 33.7391 76.652 26.2771 72.258 21.2781C68.34 16.8201 62.68 14.8551 56.323 15.7411C51.267 16.4441 46.436 20.2271 44.3 25.1521C42.155 30.1001 42.864 35.5061 46.296 40.3731C52.129 48.6421 57.809 47.9331 60.511 46.8961C60.327 47.4041 60.028 47.9411 59.533 48.4741C58.687 49.3831 57.071 50.3601 56.464 50.1651C56.054 50.0311 54.63 49.1161 53.487 48.3811C50.745 46.6191 48.864 45.4521 47.744 45.2781C45.611 44.9541 43.08 45.6551 42.547 47.9861C42.18 49.5931 43.419 51.3421 44.779 52.0411C45.803 52.5671 46.837 52.4481 47.404 51.7651C47.416 51.7631 47.43 51.7621 47.445 51.7621C47.893 51.7621 49.048 52.6461 49.867 53.6971C46.437 55.2631 43.851 57.3831 42.121 60.0381C42.101 60.0401 42.082 60.0321 42.062 60.0351C26.4 62.2161 25.092 57.1891 22.935 48.8521C22.257 46.2351 21.489 43.2681 20.159 40.2511C18.409 36.2831 16.189 34.1521 13.562 33.9181C11.395 33.7311 9.40503 34.9041 7.90203 36.1941C8.63503 33.8821 9.61003 31.5371 10.866 29.1711C16.64 18.2841 27.012 10.2451 39.323 7.11508C51.039 4.13608 62.779 5.99508 72.37 12.3521C93.298 26.2201 96.813 52.7721 86.966 68.8711Z" fill="white"/>
</svg>
