<svg width="100" height="100" viewBox="0 0 100 100" fill="none" xmlns="http://www.w3.org/2000/svg">
<g clip-path="url(#clip0_1406_156)">
<path d="M36.5 58.8H36.4C29.6 58.1 23.3 54.1 18.2 47.2C18 47 18 46.8 18 46.5C18 46.4 18 46.4 18 46.3C18 46 18.2 45.7 18.4 45.6L20.7 43.9C21.2 43.5 21.9 43.6 22.3 44.1C22.4 44.3 22.5 44.5 22.5 44.8C22.5 45.1 22.3 45.5 22 45.7L20.7 46.7C24.6 51.6 29.1 54.8 34.1 56L24.3 41.5L10.7 21.7C10.6 21.5 10.5 21.3 10.5 21.1C10.5 20.7 10.7 20.4 11 20.2C11.5 19.9 12.2 20 12.6 20.5L26.1 40.4L37.4 57C37.5 57.2 37.6 57.4 37.6 57.6C37.6 57.8 37.5 58 37.4 58.2C37.2 58.6 36.8 58.8 36.5 58.8Z" fill="#4A4E91"/>
<path d="M82.4 100C82.3 100 82.2 100 82.1 100C81.5 99.8 81.2 99.2 81.3 98.6L84.8 86.1C85.8 82.3 86.4 78.3 86.5 74.2C86.6 69.2 85.8 63.9999 84.2 58.7999L79.9 44.7C78.3 39.3 78.1 33.7999 79.3 28.7999C79.9 26.4999 80.7 24.4 81.8 22.4C85.4 15.7 87.3 8.79995 87.3 1.79995V1.29995C87.3 0.699951 87.8 0.199951 88.4 0.199951C89 0.199951 89.5 0.699951 89.5 1.29995V1.79995C89.5 8.99995 87.5 16.5 83.7 23.5C82.7 25.3 82 27.3 81.4 29.4C80.2 34.0999 80.4 39.1999 81.9 44.0999L86.2 58.2C87.9 63.7 88.7 69.1 88.6 74.3C88.5 78.5 87.9 82.7 86.8 86.8L83.3 99.3C83.3 99.7 82.9 100 82.4 100Z" fill="#4A4E91"/>
<path d="M50 100C49.6 100 49.1 99.7 49 99.3L47 94.4C45.1 89.8 45.1 84.4 47 79.6C47.2 79 47.9 78.7 48.5 79C49.1 79.2 49.3999 79.9 49.0999 80.5C47.3999 84.8 47.3999 89.6 49.0999 93.7L51.0999 98.6C51.2999 99.2 51.1 99.8 50.5 100.1C50.3 100 50.1 100 50 100Z" fill="#4A4E91"/>
<path d="M46.7 85.9999C46.6 85.9999 46.5 85.9999 46.4 85.9999H46.3C38.3 83.9999 20 77.1999 21.8 56.7999C21.9 56.1999 22.4 55.6999 23 55.7999C23.6 55.8999 24.1 56.3999 24 56.9999C22.4 75.6999 39.4 81.9999 46.8 83.7999H46.9C47.5 83.9999 47.9 84.5999 47.7 85.1999C47.7 85.6999 47.2 85.9999 46.7 85.9999Z" fill="#4A4E91"/>
<path d="M29.4 39.9001C29.2 39.9001 29 39.8001 28.8 39.7001C28.3 39.4001 28.1 38.7001 28.4 38.2001C29.8 36.0001 31.2 33.8 32.6 31.7C36.4 26 39.8 21.1 39.6 17C39.6 16.4 40.1 15.9 40.7 15.8C41.3 15.8 41.8 16.3 41.9 16.9C42.1 21.7 38.6 26.9001 34.5 32.9001C33.1 35.0001 31.7 37.1 30.3 39.3C30.2 39.7 29.8 39.9001 29.4 39.9001Z" fill="#4A4E91"/>
<path d="M44.3 18.5C39.4 18.5 35.4 16.6 33.3 13C30.9 8.99996 31.6 3.79996 34.9 0.299961C35.3 -0.100039 36 -0.200039 36.5 0.299961C36.9 0.699961 37 1.39996 36.5 1.89996C33.9 4.59996 33.4 8.69996 35.2 11.9C37.6 16 43.1 17.3 50 15.4C50.6 15.2 51.2 15.6 51.4 16.2C51.6 16.8 51.2 17.4 50.6 17.6C48.4 18.2 46.3 18.5 44.3 18.5Z" fill="#4A4E91"/>
<path d="M36.5 100C36.2 100 35.8 99.8 35.6 99.5C30.8 93 33.6 80.3 33.7 79.7C33.8 79.1 34.4 78.7 35 78.8C35.6 78.9 36 79.5 35.9 80.1C35.9 80.2 33.3 92.4 37.4 98.1C37.8 98.6 37.7 99.3 37.2 99.7C36.9 99.9 36.7 100 36.5 100Z" fill="#4A4E91"/>
<path d="M40.7 77.0999C40.1 76.7999 39.9 76.1999 40.2 75.5999C40.5 74.9999 41.1 74.7999 41.7 75.0999C42.3 75.3999 42.5 75.9999 42.2 76.5999C42 76.9999 41.6 77.2999 41.2 77.2999C41 77.1999 40.9 77.1999 40.7 77.0999ZM36.3 74.3999C35.8 73.9999 35.7 73.2999 36.1 72.7999C36.5 72.2999 37.2 72.1999 37.7 72.5999C38.2 72.9999 38.3 73.6999 37.9 74.1999C37.7 74.4999 37.4 74.5999 37 74.5999C36.8 74.6999 36.5 74.5999 36.3 74.3999ZM32.7 70.6999C32.3 70.1999 32.4 69.4999 32.9 69.0999C33.4 68.6999 34.1 68.7999 34.5 69.2999C34.9 69.7999 34.8 70.4999 34.3 70.8999C34.1 71.0999 33.9 71.0999 33.6 71.0999C33.3 71.1999 33 70.9999 32.7 70.6999ZM30.1 66.3999C29.8 65.7999 30.1 65.1999 30.6 64.8999C31.2 64.5999 31.8 64.8999 32.1 65.3999C32.4 65.9999 32.1 66.5999 31.6 66.8999C31.4 66.9999 31.2 66.9999 31.1 66.9999C30.6 66.9999 30.3 66.7999 30.1 66.3999ZM28.3 61.4999C28.2 60.8999 28.6 60.2999 29.2 60.1999C29.8 60.0999 30.4 60.4999 30.5 61.0999C30.6 61.6999 30.2 62.2999 29.6 62.3999C29.5 62.3999 29.5 62.3999 29.4 62.3999C28.9 62.3999 28.4 61.9999 28.3 61.4999Z" fill="#4A4E91"/>
</g>
<defs>
<clipPath id="clip0_1406_156">
<rect width="100" height="100" fill="white"/>
</clipPath>
</defs>
</svg>
