<svg width="100" height="100" viewBox="0 0 100 100" fill="none" xmlns="http://www.w3.org/2000/svg">
<path d="M28.358 79.815C36.905 79.815 44.077 73.896 46.041 65.947C46.062 65.881 46.085 65.818 46.092 65.751C46.408 64.409 46.592 63.018 46.592 61.581V38.419C46.592 28.365 38.412 20.186 28.359 20.186C18.306 20.186 10.126 28.365 10.126 38.419V61.581C10.125 71.635 18.305 79.815 28.358 79.815ZM44.386 64.033L30.262 55.315L44.591 46.47V61.582C44.592 62.417 44.509 63.231 44.386 64.033ZM28.358 22.187C37.309 22.187 44.591 29.469 44.591 38.42V44.12L28.357 54.14L12.124 44.12V38.42C12.125 29.469 19.407 22.187 28.358 22.187ZM12.125 46.47L43.937 66.106C41.972 72.86 35.738 77.815 28.358 77.815C19.407 77.815 12.125 70.533 12.125 61.582V46.47Z" fill="#4A4E91"/>
<path d="M28.266 48.9121C34.607 48.9121 39.765 43.7541 39.765 37.4131C39.765 31.1171 34.677 25.9921 28.396 25.9211C28.385 25.9211 28.375 25.9141 28.363 25.9141C28.352 25.9141 28.342 25.9171 28.33 25.9171C28.308 25.9171 28.287 25.9141 28.265 25.9141C21.925 25.9141 16.766 31.0721 16.766 37.4131C16.766 43.7541 21.925 48.9121 28.266 48.9121ZM24.644 28.6361C24.519 29.0191 24.434 29.4201 24.434 29.8441C24.434 32.0111 26.197 33.7731 28.363 33.7731C29.724 33.7731 30.969 33.0841 31.693 31.9301C31.986 31.4621 31.845 30.8451 31.377 30.5521C30.91 30.2591 30.292 30.4011 29.999 30.8681C29.644 31.4351 29.032 31.7731 28.363 31.7731C27.299 31.7731 26.434 30.9081 26.434 29.8441C26.434 28.7911 27.282 27.9361 28.331 27.9181C33.539 27.9541 37.765 32.1981 37.765 37.4131C37.765 42.6501 33.504 46.9121 28.266 46.9121C23.029 46.9121 18.767 42.6511 18.767 37.4131C18.767 33.4581 21.199 30.0631 24.644 28.6361Z" fill="#4A4E91"/>
<path d="M28.266 44.1709C30.359 44.1709 32.31 43.0449 33.36 41.2319C33.637 40.7539 33.474 40.1419 32.996 39.8659C32.518 39.5889 31.906 39.7519 31.63 40.2299C30.937 41.4269 29.648 42.1709 28.267 42.1709C26.886 42.1709 25.598 41.4269 24.904 40.2309C24.627 39.7519 24.016 39.5889 23.538 39.8669C23.06 40.1439 22.897 40.7559 23.174 41.2329C24.222 43.0449 26.174 44.1709 28.266 44.1709Z" fill="#4A4E91"/>
<path d="M90.1251 38.419C90.1251 28.365 81.9451 20.186 71.8921 20.186C61.8391 20.186 53.6591 28.365 53.6591 38.419V61.581C53.6591 71.635 61.8391 79.814 71.8921 79.814C80.4391 79.814 87.6111 73.895 89.5751 65.946C89.5961 65.88 89.6191 65.817 89.6261 65.75C89.9421 64.408 90.1261 63.017 90.1261 61.58L90.1251 38.419ZM88.1251 61.582C88.1251 62.417 88.0421 63.231 87.9201 64.033L73.7961 55.315L88.1251 46.47V61.582ZM71.8921 22.187C80.8431 22.187 88.1251 29.469 88.1251 38.42V44.12L71.8911 54.14L55.6581 44.12V38.42C55.6581 29.469 62.9401 22.187 71.8921 22.187ZM71.8921 77.815C62.9411 77.815 55.6591 70.533 55.6591 61.582V46.47L87.4711 66.106C85.5051 72.86 79.2711 77.815 71.8921 77.815Z" fill="#4A4E91"/>
<path d="M71.7991 48.9121C78.1391 48.9121 83.298 43.7541 83.298 37.4131C83.298 31.1171 78.2101 25.9921 71.93 25.9211C71.919 25.9211 71.9091 25.9141 71.8971 25.9141C71.8861 25.9141 71.876 25.9171 71.864 25.9171C71.842 25.9171 71.8211 25.9141 71.7991 25.9141C65.4581 25.9141 60.3 31.0721 60.3 37.4131C60.3 43.7541 65.4581 48.9121 71.7991 48.9121ZM68.1771 28.6361C68.0521 29.0191 67.9671 29.4201 67.9671 29.8441C67.9671 32.0111 69.7301 33.7731 71.8971 33.7731C73.2571 33.7731 74.502 33.0851 75.227 31.9311C75.521 31.4631 75.3801 30.8461 74.9121 30.5531C74.4461 30.2601 73.828 30.4001 73.534 30.8681C73.178 31.4351 72.5661 31.7741 71.8981 31.7741C70.8341 31.7741 69.9681 30.9091 69.9681 29.8451C69.9681 28.7921 70.817 27.9371 71.865 27.9191C77.072 27.9551 81.298 32.1991 81.298 37.4141C81.298 42.6511 77.0371 46.9131 71.7991 46.9131C66.5611 46.9131 62.3 42.6521 62.3 37.4141C62.3 33.4581 64.7321 30.0631 68.1771 28.6361Z" fill="#4A4E91"/>
<path d="M71.799 44.1709C73.892 44.1709 75.843 43.0449 76.893 41.2319C77.17 40.7539 77.007 40.1419 76.529 39.8659C76.051 39.5889 75.439 39.7519 75.163 40.2299C74.47 41.4269 73.181 42.1709 71.8 42.1709C70.419 42.1709 69.13 41.4269 68.437 40.2309C68.16 39.7519 67.548 39.5889 67.071 39.8669C66.593 40.1429 66.43 40.7549 66.707 41.2329C67.755 43.0449 69.707 44.1709 71.799 44.1709Z" fill="#4A4E91"/>
</svg>
