<svg width="100" height="100" viewBox="0 0 100 100" fill="none" xmlns="http://www.w3.org/2000/svg">
<g clip-path="url(#clip0_1406_120)">
<path d="M75.689 60.9009C77.969 60.2449 79.644 58.1439 79.644 55.6549C79.644 52.6419 77.194 50.1919 74.182 50.1919C71.169 50.1919 68.719 52.6419 68.719 55.6549C68.719 58.1429 70.393 60.2439 72.673 60.9009C69.941 61.5789 67.907 64.0439 67.907 66.9819V75.4369H69.386H70.206V87.4009H73.165V75.4369H75.194V87.4009H78.153V75.4369H78.973H80.452V66.9819C80.454 64.0439 78.42 61.5789 75.689 60.9009ZM74.182 58.1589C72.8 58.1589 71.678 57.0359 71.678 55.6559C71.678 54.2749 72.8 53.1529 74.182 53.1529C75.562 53.1529 76.685 54.2749 76.685 55.6559C76.685 57.0359 75.562 58.1589 74.182 58.1589Z" fill="#4A4E91"/>
<path d="M97.373 70.7671V66.1041C97.373 63.6731 95.723 61.6411 93.491 61.0121C95.804 60.3821 97.512 58.2691 97.512 55.7581C97.512 52.7541 95.067 50.3101 92.063 50.3101C89.059 50.3101 86.613 52.7541 86.613 55.7581C86.613 56.6101 86.815 57.4131 87.165 58.1321C86.995 58.0411 86.787 57.9761 86.515 57.9681C85.19 57.9271 84.482 59.9871 84.141 60.5361C85.094 61.0871 87.807 61.1481 87.807 59.2601C87.807 59.2351 87.805 59.1941 87.8 59.1431C88.513 60.0391 89.5 60.7031 90.634 61.0121C88.402 61.6411 86.751 63.6731 86.751 66.1041L86.754 70.7321L84.422 79.7511H88.098V87.4011H91.057V79.7511H93.069V87.4011H96.028V79.7511H99.703L97.373 70.7671ZM89.585 55.8891C90.273 55.6061 91.182 55.1261 91.954 54.3791C92.632 54.9431 93.52 55.4131 94.531 55.5411C94.537 55.6141 94.553 55.6851 94.553 55.7591C94.553 57.1321 93.436 58.2501 92.063 58.2501C90.734 58.2501 89.654 57.2011 89.585 55.8891ZM88.246 76.7931L89.651 71.3681L89.709 66.1051C89.709 64.8081 90.764 63.7521 92.061 63.7521C93.358 63.7521 94.414 64.8081 94.414 66.1051L94.417 70.9121L95.878 76.7931H88.246Z" fill="#4A4E91"/>
<path d="M7.77197 60.9009C10.052 60.2449 11.727 58.1439 11.727 55.6549C11.727 52.6419 9.27697 50.1919 6.26497 50.1919C3.25297 50.1919 0.802967 52.6419 0.802967 55.6549C0.802967 58.1429 2.47697 60.2439 4.75697 60.9009C2.02497 61.5789 -0.0090332 64.0439 -0.0090332 66.9819V75.4419H2.29197V87.4009H5.24997V75.4419H2.94997V66.9819C2.94997 65.1549 4.43697 63.6689 6.26397 63.6689C8.09097 63.6689 9.57897 65.1549 9.57897 66.9819V75.4419H7.27897V87.4009H10.238V75.4379H12.538V66.9819C12.536 64.0439 10.504 61.5789 7.77197 60.9009ZM3.76097 55.6549C3.76097 54.2739 4.88397 53.1519 6.26397 53.1519C7.64397 53.1519 8.76697 54.2739 8.76697 55.6549C8.76697 57.0349 7.64397 58.1579 6.26397 58.1579C4.88397 58.1589 3.76097 57.0359 3.76097 55.6549Z" fill="#4A4E91"/>
<path d="M30.097 66.105C30.097 63.674 28.447 61.642 26.215 61.013C28.528 60.383 30.236 58.27 30.236 55.759C30.236 52.755 27.792 50.311 24.787 50.311C21.782 50.311 19.338 52.755 19.338 55.759C19.338 56.611 19.54 57.414 19.89 58.133C19.72 58.042 19.512 57.977 19.24 57.969C17.915 57.928 17.207 59.988 16.866 60.537C17.819 61.088 20.532 61.149 20.532 59.261C20.532 59.236 20.53 59.195 20.525 59.144C21.237 60.04 22.225 60.704 23.359 61.013C21.128 61.642 19.477 63.674 19.477 66.105L19.48 70.733L17.148 79.752H20.824V87.402H23.783V79.752H25.795V87.402H28.754V79.752H32.428L30.1 70.768V66.105H30.097ZM24.786 58.25C23.457 58.25 22.378 57.201 22.309 55.889C22.997 55.606 23.906 55.126 24.678 54.379C25.357 54.943 26.244 55.413 27.255 55.541C27.261 55.614 27.277 55.685 27.277 55.759C27.276 57.132 26.159 58.25 24.786 58.25Z" fill="#4A4E91"/>
<path d="M60.4259 51.9689V41.8409C60.4259 35.8879 55.5819 31.0459 49.6279 31.0459C43.6769 31.0459 38.8329 35.8889 38.8329 41.8409V51.9689H41.6629L37.7689 72.4219H45.2569V87.4019H48.2159V72.4219H51.1749V87.4019H54.1339V72.4219H61.4859L57.5939 51.9689H60.4259ZM49.6289 34.0039C50.1309 34.0039 50.6199 34.0559 51.0959 34.1469C51.0229 34.8949 50.3979 35.4839 49.6299 35.4839C48.8629 35.4839 48.2379 34.8949 48.1659 34.1469C48.6399 34.0559 49.1279 34.0039 49.6289 34.0039ZM57.4669 51.8959H41.7929V41.8409C41.7929 39.0799 43.2319 36.6529 45.3949 35.2569C45.9399 37.0909 47.6209 38.4419 49.6299 38.4419C51.6389 38.4419 53.3209 37.0919 53.8659 35.2579C56.0289 36.6539 57.4679 39.0809 57.4679 41.8409L57.4669 51.8959Z" fill="#4A4E91"/>
<path d="M64.292 22.855C63.331 21.499 61.723 19.23 59.353 19.23C59.132 19.23 58.908 19.25 58.682 19.293C58.559 19.317 58.462 19.362 58.348 19.393C57.338 15.455 53.768 12.532 49.52 12.532C44.489 12.532 40.397 16.624 40.397 21.654C40.397 26.685 44.49 30.777 49.52 30.777C52.907 30.777 55.862 28.918 57.436 26.17C58.169 26.634 59.089 26.897 60.174 26.897C61.759 26.897 63.503 26.345 64.512 25.522L65.695 24.56L64.698 23.408C64.591 23.282 64.455 23.086 64.292 22.855ZM51.502 15.824C52.623 16.206 53.6 16.9 54.327 17.806C53.01 17.667 51.749 17.284 50.947 16.932C51.166 16.515 51.347 16.148 51.502 15.824ZM43.355 21.654C43.355 18.665 45.495 16.168 48.323 15.609C47.057 18.013 45.192 20.621 43.359 21.741C43.359 21.712 43.355 21.684 43.355 21.654ZM49.52 27.818C47.214 27.818 45.202 26.543 44.145 24.663C46.283 23.656 48.096 21.532 49.443 19.485C50.99 20.25 53.255 20.812 55.338 20.812C55.433 20.812 55.524 20.803 55.618 20.801C55.657 21.081 55.684 21.364 55.684 21.654C55.684 25.054 52.919 27.818 49.52 27.818ZM60.174 23.938C58.771 23.938 58.664 23.28 58.621 23.006C58.528 22.336 58.99 22.247 59.239 22.199C59.276 22.192 59.315 22.188 59.352 22.188C59.956 22.188 60.736 23.048 61.313 23.796C60.961 23.882 60.573 23.938 60.174 23.938Z" fill="#4A4E91"/>
</g>
<defs>
<clipPath id="clip0_1406_120">
<rect width="100" height="100" fill="white"/>
</clipPath>
</defs>
</svg>
