<svg width="512" height="512" viewBox="0 0 512 512" fill="none" xmlns="http://www.w3.org/2000/svg">
<path d="M307.224 5H204.775C104.888 25.4898 25.4898 104.034 5 204.775V307.224C25.4898 407.966 104.888 486.51 204.775 507H307.224C407.966 486.51 486.51 407.112 507 307.224V204.775C486.51 104.034 407.112 25.4898 307.224 5Z" fill="#F9F9F9"/>
<path d="M307.2 204.8V5.12C290.987 1.70667 273.92 0 256 0C238.08 0 221.013 1.70667 204.8 5.12V204.8H5.12C1.70667 221.013 0 238.08 0 256C0 273.92 1.70667 290.987 5.12 307.2H204.8V506.88C221.013 510.293 238.08 512 256 512C273.92 512 290.987 510.293 307.2 506.88V307.2H506.88C510.293 290.987 512 273.92 512 256C512 238.08 510.293 221.013 506.88 204.8H307.2Z" fill="#ED4C5C"/>
<path d="M136.533 153.6H102.4L110.933 102.4L102.4 51.2H136.533L128 102.4L136.533 153.6Z" fill="#ED4C5C"/>
<path d="M68.2666 119.467V85.3333L119.467 93.8667L170.667 85.3333V119.467L119.467 110.933L68.2666 119.467ZM409.6 153.6H375.467L384 102.4L375.467 51.2H409.6L401.067 102.4L409.6 153.6Z" fill="#ED4C5C"/>
<path d="M341.333 119.467V85.3333L392.533 93.8667L443.733 85.3333V119.467L392.533 110.933L341.333 119.467ZM136.533 460.8H102.4C102.4 460.8 110.933 422.4 110.933 409.6C110.933 396.8 102.4 358.4 102.4 358.4H136.533C136.533 358.4 128 396.8 128 409.6C128 422.4 136.533 460.8 136.533 460.8Z" fill="#ED4C5C"/>
<path d="M68.2666 426.667V392.533L119.467 401.067L170.667 392.533V426.667L119.467 418.133L68.2666 426.667ZM409.6 460.8H375.467L384 409.6L375.467 358.4H409.6L401.067 409.6L409.6 460.8Z" fill="#ED4C5C"/>
<path d="M341.333 426.667V392.533L392.533 401.067L443.734 392.533V426.667L392.533 418.133L341.333 426.667Z" fill="#ED4C5C"/>
</svg>
