<svg width="80" height="80" viewBox="0 0 80 80" fill="none" xmlns="http://www.w3.org/2000/svg">
<circle cx="40" cy="40" r="39.5" fill="white" stroke="#D9D9D9"/>
<path d="M48.3 48.115C47.5011 49.2733 46.4417 50.2281 45.2069 50.9028C43.9721 51.5775 42.5963 51.9533 41.19 52C37.17 52 33.69 49 32.19 44.5H40.5C40.8978 44.5 41.2794 44.342 41.5607 44.0607C41.842 43.7794 42 43.3978 42 43C42 42.6022 41.842 42.2206 41.5607 41.9393C41.2794 41.658 40.8978 41.5 40.5 41.5H31.575C31.575 41.005 31.5 40.495 31.5 40C31.5 39.505 31.5 38.995 31.575 38.5H40.5C40.8978 38.5 41.2794 38.342 41.5607 38.0607C41.842 37.7794 42 37.3978 42 37C42 36.6022 41.842 36.2206 41.5607 35.9393C41.2794 35.658 40.8978 35.5 40.5 35.5H32.205C33.705 31 37.17 28 41.205 28C42.6088 28.049 43.9816 28.4259 45.2136 29.1005C46.4456 29.7751 47.5026 30.7287 48.3 31.885C48.4059 32.0673 48.5489 32.2252 48.7199 32.3485C48.8909 32.4717 49.086 32.5576 49.2924 32.6004C49.4988 32.6432 49.7119 32.6421 49.9178 32.597C50.1237 32.552 50.3178 32.464 50.4874 32.3389C50.6571 32.2138 50.7984 32.0543 50.9023 31.8709C51.0062 31.6875 51.0703 31.4842 51.0903 31.2744C51.1104 31.0646 51.086 30.8529 51.0187 30.6531C50.9515 30.4533 50.8429 30.27 50.7 30.115C49.6316 28.5718 48.2128 27.3037 46.5597 26.4146C44.9067 25.5255 43.0665 25.0407 41.19 25C35.55 25 30.69 29.26 29.085 35.5H25.5C25.1022 35.5 24.7206 35.658 24.4393 35.9393C24.158 36.2206 24 36.6022 24 37C24 37.3978 24.158 37.7794 24.4393 38.0607C24.7206 38.342 25.1022 38.5 25.5 38.5H28.575V41.5H25.5C25.1022 41.5 24.7206 41.658 24.4393 41.9393C24.158 42.2206 24 42.6022 24 43C24 43.3978 24.158 43.7794 24.4393 44.0607C24.7206 44.342 25.1022 44.5 25.5 44.5H29.085C30.72 50.74 35.55 55 41.19 55C43.0665 54.9593 44.9067 54.4745 46.5597 53.5854C48.2128 52.6963 49.6316 51.4282 50.7 49.885C50.8856 49.5655 50.9467 49.1887 50.8716 48.8269C50.7965 48.4651 50.5906 48.1438 50.2932 47.9245C49.9958 47.7052 49.628 47.6033 49.2602 47.6385C48.8923 47.6737 48.5504 47.8433 48.3 48.115Z" fill="#FF7691"/>
</svg>
