<svg width="80" height="80" viewBox="0 0 80 80" fill="none" xmlns="http://www.w3.org/2000/svg">
<circle cx="40" cy="40" r="39.5" fill="white" stroke="#D9D9D9"/>
<path d="M53.9499 36.12C53.5285 35.614 53.001 35.2067 52.4049 34.9267C51.8088 34.6468 51.1585 34.5012 50.4999 34.5H43.66L44.5 32.355C44.8494 31.4159 44.9657 30.406 44.8391 29.4119C44.7124 28.4179 44.3465 27.4694 43.7727 26.6479C43.199 25.8264 42.4345 25.1563 41.5449 24.6951C40.6552 24.2339 39.667 23.9954 38.665 24.0001C38.3764 24.0007 38.0942 24.0845 37.8521 24.2415C37.61 24.3984 37.4183 24.6219 37.3 24.8851L33.025 34.5H29.5C28.3065 34.5 27.1619 34.9741 26.318 35.8181C25.4741 36.662 25 37.8066 25 39V49.5C25 50.6935 25.4741 51.8381 26.318 52.682C27.1619 53.5259 28.3065 54 29.5 54H48.5949C49.6477 53.9996 50.6669 53.6302 51.4754 52.956C52.2839 52.2818 52.8305 51.3455 53.0199 50.31L54.9249 39.81C55.0428 39.1611 55.0165 38.4942 54.848 37.8566C54.6795 37.2189 54.3729 36.6261 53.9499 36.12ZM32.5 51H29.5C29.1022 51 28.7206 50.842 28.4393 50.5607C28.158 50.2794 28 49.8978 28 49.5V39C28 38.6022 28.158 38.2207 28.4393 37.9394C28.7206 37.6581 29.1022 37.5 29.5 37.5H32.5V51ZM51.9999 39.27L50.0949 49.77C50.0311 50.1194 49.8452 50.4349 49.5705 50.6601C49.2958 50.8854 48.9501 51.0058 48.5949 51H35.5V36.315L39.58 27.1351C39.9999 27.2575 40.39 27.4657 40.7255 27.7464C41.0609 28.0272 41.3346 28.3745 41.5291 28.7663C41.7236 29.1581 41.8347 29.586 41.8555 30.023C41.8764 30.46 41.8064 30.8965 41.65 31.3051L40.855 33.45C40.6856 33.9034 40.6284 34.3911 40.6883 34.8713C40.7482 35.3516 40.9234 35.8103 41.199 36.2081C41.4745 36.606 41.8423 36.9313 42.2708 37.1563C42.6994 37.3813 43.176 37.4992 43.66 37.5H50.4999C50.7203 37.4997 50.938 37.5479 51.1377 37.6412C51.3373 37.7345 51.5139 37.8707 51.6549 38.04C51.7994 38.207 51.9053 38.4039 51.9649 38.6165C52.0246 38.8291 52.0365 39.0523 51.9999 39.27Z" fill="#FF7691"/>
</svg>
