<svg width="80" height="80" viewBox="0 0 80 80" fill="none" xmlns="http://www.w3.org/2000/svg">
<circle cx="40" cy="40" r="39.5" fill="white" stroke="#D9D9D9"/>
<path d="M40 41.5C39.6022 41.5 39.2206 41.658 38.9393 41.9393C38.658 42.2206 38.5 42.6022 38.5 43V47.5C38.5 47.8978 38.658 48.2794 38.9393 48.5607C39.2206 48.842 39.6022 49 40 49C40.3978 49 40.7794 48.842 41.0607 48.5607C41.342 48.2794 41.5 47.8978 41.5 47.5V43C41.5 42.6022 41.342 42.2206 41.0607 41.9393C40.7794 41.658 40.3978 41.5 40 41.5ZM47.5 35.5V32.5C47.5 30.5109 46.7098 28.6032 45.3033 27.1967C43.8968 25.7902 41.9891 25 40 25C38.0109 25 36.1032 25.7902 34.6967 27.1967C33.2902 28.6032 32.5 30.5109 32.5 32.5V35.5C31.3065 35.5 30.1619 35.9741 29.318 36.818C28.4741 37.6619 28 38.8065 28 40V50.5C28 51.6935 28.4741 52.8381 29.318 53.682C30.1619 54.5259 31.3065 55 32.5 55H47.5C48.6935 55 49.8381 54.5259 50.682 53.682C51.5259 52.8381 52 51.6935 52 50.5V40C52 38.8065 51.5259 37.6619 50.682 36.818C49.8381 35.9741 48.6935 35.5 47.5 35.5ZM35.5 32.5C35.5 31.3065 35.9741 30.1619 36.818 29.318C37.6619 28.4741 38.8065 28 40 28C41.1935 28 42.3381 28.4741 43.182 29.318C44.0259 30.1619 44.5 31.3065 44.5 32.5V35.5H35.5V32.5ZM49 50.5C49 50.8978 48.842 51.2794 48.5607 51.5607C48.2794 51.842 47.8978 52 47.5 52H32.5C32.1022 52 31.7206 51.842 31.4393 51.5607C31.158 51.2794 31 50.8978 31 50.5V40C31 39.6022 31.158 39.2206 31.4393 38.9393C31.7206 38.658 32.1022 38.5 32.5 38.5H47.5C47.8978 38.5 48.2794 38.658 48.5607 38.9393C48.842 39.2206 49 39.6022 49 40V50.5Z" fill="#FF7691"/>
</svg>
