<svg width="16" height="15" viewBox="0 0 16 15" fill="none" xmlns="http://www.w3.org/2000/svg">
<path d="M10.75 0.519775H5.25002C2.71773 0.519775 0.666687 2.5293 0.666687 5.01033V10.399C0.666687 12.88 2.71773 14.8895 5.25002 14.8895H10.75C13.2823 14.8895 15.3334 12.88 15.3334 10.399V5.01033C15.3334 2.5293 13.2823 0.519775 10.75 0.519775ZM13.9584 10.399C13.9584 12.1335 12.5203 13.5424 10.75 13.5424H5.25002C3.47971 13.5424 2.04169 12.1335 2.04169 10.399V5.01033C2.04169 3.27585 3.47971 1.86694 5.25002 1.86694H10.75C12.5203 1.86694 13.9584 3.27585 13.9584 5.01033V10.399Z" fill="url(#paint0_linear_187_62)"/>
<path d="M7.99998 4.11255C5.97472 4.11255 4.33331 5.72073 4.33331 7.70499C4.33331 9.68925 5.97472 11.2974 7.99998 11.2974C10.0252 11.2974 11.6666 9.68925 11.6666 7.70499C11.6666 5.72073 10.0252 4.11255 7.99998 4.11255ZM7.99998 9.95027C6.7367 9.95027 5.70831 8.9427 5.70831 7.70499C5.70831 6.46728 6.7367 5.45971 7.99998 5.45971C9.26326 5.45971 10.2916 6.46728 10.2916 7.70499C10.2916 8.9427 9.26326 9.95027 7.99998 9.95027Z" fill="url(#paint1_linear_187_62)"/>
<path d="M11.9417 4.32277C12.2122 4.32277 12.4315 4.1079 12.4315 3.84284C12.4315 3.57779 12.2122 3.36292 11.9417 3.36292C11.6712 3.36292 11.4518 3.57779 11.4518 3.84284C11.4518 4.1079 11.6712 4.32277 11.9417 4.32277Z" fill="url(#paint2_linear_187_62)"/>
<defs>
<linearGradient id="paint0_linear_187_62" x1="2.00933" y1="13.5742" x2="13.7457" y2="1.59505" gradientUnits="userSpaceOnUse">
<stop stop-color="#FFC107"/>
<stop offset="0.507" stop-color="#F44336"/>
<stop offset="0.99" stop-color="#9C27B0"/>
</linearGradient>
<linearGradient id="paint1_linear_187_62" x1="5.40728" y1="10.2452" x2="10.4866" y2="5.06092" gradientUnits="userSpaceOnUse">
<stop stop-color="#FFC107"/>
<stop offset="0.507" stop-color="#F44336"/>
<stop offset="0.99" stop-color="#9C27B0"/>
</linearGradient>
<linearGradient id="paint2_linear_187_62" x1="11.5963" y1="4.18137" x2="12.273" y2="3.49044" gradientUnits="userSpaceOnUse">
<stop stop-color="#FFC107"/>
<stop offset="0.507" stop-color="#F44336"/>
<stop offset="0.99" stop-color="#9C27B0"/>
</linearGradient>
</defs>
</svg>
