<svg viewBox="0 0 1680 230" xmlns="http://www.w3.org/2000/svg" fill="url(#shape-dividers-gradient-mask-top-638f129b1353ec000d651425-0.75)" class="style_3DA tablet_3hj top_3QM" preserveAspectRatio="none" shape-rendering="geometricPrecision" style="height:66px"><defs><pattern id="tilt-opacity-3d1ec7b0-9a05-4e09-bd94-5c7ef2c966b4" x="0" y="0" width="Infinity%" height="100%" viewBox="0 0 1680 230" style="height:66px" preserveAspectRatio="none"><g><path opacity="0.5" d="M0 280L840 280L840 208.793L-2.26862e-05 -9.15527e-05L0 280Z"></path><path d="M0 280L840 280L840 210L-1.37254e-05 102L0 280Z"></path><path opacity="0.5" d="M1680 280L840 280L840 208.793L1680 0.000152588L1680 280Z"></path><path d="M1680 280L840 280L840 210L1680 102L1680 280Z"></path></g></pattern></defs><g><path opacity="0.5" d="M0 280L1680 280L1680 208.793L-2.0894e-05 -9.15527e-05L0 280Z"></path><path d="M0 280L1680 280L1680 210L-1.18895e-05 102L0 280Z"></path></g><defs><linearGradient id="shape-dividers-gradient-mask-top-638f129b1353ec000d651425-0.75" gradientUnits="userSpaceOnUse" x1="49.99999999999999%" y1="0%" x2="50%" y2="100%"><stop offset="0%" stop-color="#ffffff"></stop><stop offset="100%" stop-color="#f4c1bd"></stop></linearGradient></defs></svg>