<svg width="28" height="28" viewBox="0 0 28 28" fill="none" xmlns="http://www.w3.org/2000/svg">
<path d="M18.7 14H21.8C21.8 9.7 18.3 6.2 14 6.2V9.3C16.6 9.3 18.7 11.4 18.7 14ZM24.9 14H28C28 6.2 21.7 0 14 0V3.1C20 3.1 24.9 8 24.9 14ZM26.4 19.4C24.5 19.4 22.6 19.1 20.8 18.5C20.3 18.3 19.6 18.5 19.2 18.9L15.8 22.3C11.4 20.1 7.8 16.5 5.5 12L8.9 8.6C9.3 8.2 9.5 7.6 9.3 7C8.9 5.4 8.6 3.5 8.6 1.6C8.6 0.7 7.9 0 7 0H1.6C0.7 0 0 0.7 0 1.6C0 16.2 11.8 28 26.4 28C27.3 28 28 27.3 28 26.4V21C28 20.1 27.3 19.4 26.4 19.4Z" fill="#76C75E"/>
</svg>
