<svg width="100" height="100" viewBox="0 0 100 100" fill="none" xmlns="http://www.w3.org/2000/svg">
<path d="M50 25.9C54.8049 25.9 58.7001 22.0049 58.7001 17.2C58.7001 12.3951 54.8049 8.5 50 8.5C45.1952 8.5 41.3 12.3951 41.3 17.2C41.3 22.0049 45.1952 25.9 50 25.9Z" fill="#4A4E91"/>
<path d="M92.4 9.20005C85.7 2.50005 74.7 2.50005 67.9 9.20005C62.7 14.4 61.4 22.3 64.6 28.9C64.6 28.9 64.7 29.1001 64.6 29.2001L62.4 32.1C60.7 29.8 58.3 28.1 55 28.1H45C39.2 28.1 36.5 33.9001 34.6 37.7001C34.2 38.6001 33.5 39.9001 33.3 40.2001C32.3 41.2001 30.5 41.9001 28.8 42.2001V17.1C28.8 11.3 24 6.50005 18.2 6.50005C12.4 6.50005 7.6 11.3 7.6 17.1V17.4H5.1C3.7 17.4 2.5 18.5 2.5 20V31.8C2.5 33.2 3.6 34.4001 5.1 34.4001H8.8C9 36.5001 9.4 42.1001 6.9 48.4001C4.9 53.6001 5.4 59.0001 8.2 62.9001C10.2 65.7001 14.3 68.9 22.2 68.9C22.8 68.9 23.3 68.9 23.9 68.9C24.1 68.9 24.3 68.8 24.6 68.8V88H20.6C19.4 88 18.5 88.9 18.5 90.1C18.5 91.3 19.4 92.2 20.6 92.2H21.3C20.9 92.6 20.7 93.1 20.7 93.7C20.7 94.9 21.7 95.9 22.9 95.9C24.1 95.9 25.1 94.9 25.1 93.7C25.1 93.1 24.9 92.6 24.5 92.2H28.9C28.5 92.6 28.3 93.1 28.3 93.7C28.3 94.9 29.3 95.9 30.5 95.9C31.7 95.9 32.7 94.9 32.7 93.7C32.7 93.1 32.5 92.6 32.1 92.2H32.8C33.9 92.2 34.9 91.3 34.9 90.1C34.9 89 34 88 32.8 88H28.8V67.5C30.5 66.8 31.9 65.6 33.1 64.2C36.8 59.5 37 52.3 36.7 48C37.7 47.4 38.6 46.7001 39.4 45.9001C40.2 45.0001 40.9 43.9 41.5 42.6L41.8 56.5L37.8 91C37.5 93.4 39.2 95.6 41.6 95.8C44 96.1 46.1 94.4 46.4 92L50 60.7001L53.6 92C53.8 94.2 55.7 95.9 57.9 95.9C58.1 95.9 58.3 95.9 58.4 95.9C60.8 95.6 62.5 93.5 62.2 91.1L58.2 56.6L58.4 47.9001L59.7 46.9001C60.4 49.6001 61.2 53.3 61.7 55.6C62.1 57.6 63.8 58.9001 65.8 58.9001C66.1 58.9001 66.3 58.9 66.6 58.8C68.8 58.4 70.3 56.2001 69.9 53.9001C69.7 53.0001 68.2 45.2001 66.8 41.4001L72.5 37C72.6 36.9 72.7 37 72.8 37C79.4 40.2 87.3 38.9001 92.5 33.7001C95.8 30.4001 97.6 26.1 97.6 21.5C97.6 16.9 95.7 12.5 92.4 9.20005ZM8.8 29.4C8.6 29.4 8.4 29.2 8.4 29V27H6.3C6.1 27 5.9 26.8 5.9 26.6V24.9C5.9 24.7 6.1 24.5 6.3 24.5H8.4V22.4C8.4 22.2 8.6 22 8.8 22H10.5C10.7 22 10.9 22.2 10.9 22.4V24.5H13C13.2 24.5 13.4 24.7 13.4 24.9V26.6C13.4 26.8 13.2 27 13 27H10.9V29.1C10.9 29.3 10.7 29.5 10.5 29.5H8.8V29.4ZM24.6 42.7001C22.7 43.1001 21.2 44.7 21.2 46.8C21.2 48.8 22.7 50.5001 24.6 50.9001V66.5C24.3 66.5 24.1 66.6 23.8 66.6C17.3 67 12.5 65.2 9.8 61.5C7.4 58.2 7 53.5 8.7 49C11.2 42.5 11 36.8 10.7 34.3H14C15.4 34.3 16.6 33.2001 16.6 31.7001V19.9C16.6 18.5 15.5 17.3 14 17.3H11.6V17C11.6 13.4 14.5 10.5 18.1 10.5C21.7 10.5 24.6 13.4 24.6 17V42.7001ZM31.4 62.9001C30.7 63.8001 29.7 64.6 28.7 65.1V50.6C30.4 50.4 32.5 49.9 34.6 49C34.8 53 34.5 59.0001 31.4 62.9001ZM90.7 31.9C86.3 36.4 79.5 37.5 73.8 34.8C72.8 34.3 71.7 34.4 70.9 35.1L53.3 48.6C53.2 48.6 53.2 48.6 53.1 48.6C53.1 48.6 53 48.5001 53.1 48.4001L66.6 30.7001C67.2 29.9001 67.3 28.8 66.9 27.8C64.2 22.1 65.3 15.4 69.8 10.9C72.7 8.00005 76.5 6.60005 80.3 6.60005C84.1 6.60005 87.9 8.00005 90.8 10.9C93.6 13.7 95.1 17.4 95.1 21.4C95.1 25.4 93.5 29.1 90.7 31.9Z" fill="#4A4E91"/>
<path d="M90.8 20.8L89.4999 20.7C88.9999 20.6 88.6 20.3 88.4 19.8C88.3 19.4 88.3999 18.9 88.6999 18.6C88.7999 18.5 88.9 18.2 88.8 18V17.9C88.7 17.7 88.5 17.6 88.3 17.6C87.9 17.6 87.5 17.4 87.3 17C87 16.6 87 16 87.4 15.6L88.1999 14.6C88.6999 14 87.8999 13.1 87.1999 13.6L86.1999 14.4C85.7999 14.7 85.2 14.8 84.8 14.5C84.4 14.3 84.1999 13.9 84.1999 13.5C84.1999 13.3 84.1 13.1 83.9 13H83.8C83.6 12.9 83.3999 13 83.1999 13.1C82.8999 13.4 82.4999 13.5 82.0999 13.4C81.5999 13.3 81.1999 12.9 81.0999 12.3L80.9999 11C80.8999 10.2 79.6999 10.2 79.5999 11L79.4999 12.3C79.3999 12.8 79.0999 13.2 78.5999 13.4C78.1999 13.5 77.7 13.4 77.4 13.1C77.3 13 77 12.9 76.8 13H76.6999C76.4999 13.1 76.3999 13.3 76.3999 13.5C76.3999 13.9 76.2 14.3 75.8 14.5C75.4 14.8 74.7999 14.8 74.3999 14.4L73.3999 13.6C72.7999 13.1 71.8999 13.9 72.3999 14.6L73.1999 15.6C73.4999 16 73.6 16.6 73.3 17C73.1 17.4 72.7 17.6 72.3 17.6C72.1 17.6 71.9 17.7 71.8 17.9V18C71.7 18.2 71.6999 18.4 71.8999 18.6C72.1999 18.9 72.2999 19.3 72.1999 19.8C72.0999 20.3 71.6999 20.7 71.0999 20.7L69.8 20.9C69 21 69 22.2 69.8 22.3L71.0999 22.4C71.5999 22.5 71.9999 22.8 72.1999 23.3C72.2999 23.7 72.1999 24.2 71.8999 24.5C71.6999 24.6 71.7 24.9 71.8 25.1V25.2C71.9 25.4 72.1 25.5 72.3 25.5C72.7 25.5 73.1 25.7 73.3 26.1C73.6 26.5 73.5999 27.1 73.1999 27.5L72.3999 28.5C71.8999 29.1 72.6999 30 73.3999 29.5L74.3999 28.7C74.7999 28.4 75.4 28.3 75.8 28.6C76.2 28.8 76.3999 29.2 76.3999 29.6C76.3999 29.8 76.4999 30 76.6999 30.1H76.8C77 30.2 77.2 30.1 77.4 30C77.7 29.7 78.0999 29.6 78.4999 29.7C78.9999 29.8 79.3999 30.2 79.4999 30.8L79.6999 32.1C79.7999 32.9 80.9999 32.9 81.0999 32.1L81.3 30.8C81.4 30.3 81.7 29.9 82.3 29.7C82.7 29.6 83.1999 29.7 83.4999 30C83.5999 30.2 83.8999 30.2 84.0999 30.1H84.1999C84.3999 30 84.4999 29.8 84.4999 29.6C84.4999 29.2 84.6999 28.8 85.0999 28.6C85.4999 28.3 86.0999 28.3 86.4999 28.7L87.4999 29.5C88.0999 30 88.9999 29.2 88.4999 28.5L87.6999 27.5C86.9999 27 86.9999 26.4 87.1999 26C87.3999 25.6 87.7999 25.4 88.1999 25.4C88.3999 25.4 88.5999 25.3 88.6999 25.1V25C88.7999 24.8 88.7999 24.6 88.5999 24.4C88.2999 24.1 88.2 23.7 88.3 23.2C88.4 22.7 88.8 22.3 89.4 22.3L90.6999 22.2C91.5999 22 91.6 20.8 90.8 20.8ZM76.0999 25.3C75.4999 25.3 74.9999 24.8 74.9999 24.2C74.9999 23.6 75.4999 23.1 76.0999 23.1C76.6999 23.1 77.1999 23.6 77.1999 24.2C77.1999 24.8 76.6999 25.3 76.0999 25.3ZM77.6999 20.8C77.3999 21 76.9999 21.1 76.5999 21.1C76.3999 21.1 76.1999 21.1 76.0999 21C75.4999 20.9 75.1 20.5 74.8 20C74.7 19.8 74.6999 19.6 74.8999 19.5C75.0999 19.4 75.2999 19.4 75.3999 19.6C75.5999 19.9 75.9 20.1 76.3 20.2C76.7 20.3 77 20.2 77.4 20C77.6 19.9 77.8 19.9 77.9 20.1C77.9 20.4 77.8999 20.7 77.6999 20.8ZM77.4999 18.2C76.8999 18.2 76.3999 17.7 76.3999 17.1C76.3999 16.5 76.8999 16 77.4999 16C78.0999 16 78.5999 16.5 78.5999 17.1C78.5999 17.7 78.0999 18.2 77.4999 18.2ZM84.8 17.6C85.4 17.6 85.9 18.1 85.9 18.7C85.9 19.3 85.4 19.8 84.8 19.8C84.2 19.8 83.6999 19.3 83.6999 18.7C83.6999 18.1 84.2 17.6 84.8 17.6ZM80.9 27.7C80.8 27.8 80.6999 27.9 80.5999 27.9C80.4999 27.9 80.5 27.9 80.4 27.9C79.3 27.3 78.8999 26 79.4999 24.9C79.5999 24.7 79.7999 24.6 79.9999 24.7C80.1999 24.8 80.2999 25 80.1999 25.2C79.7999 25.9 80.1 26.7 80.8 27.1C80.9 27.3 81 27.5 80.9 27.7ZM80.4999 22.8C79.8999 22.8 79.4 22.3 79.4 21.7C79.4 21.1 79.8999 20.6 80.4999 20.6C81.0999 20.6 81.5999 21.1 81.5999 21.7C81.5999 22.3 81.0999 22.8 80.4999 22.8ZM81.5999 16.9C81.3999 17.2 81.3999 17.6 81.5999 18C81.6999 18.2 81.6 18.4 81.4 18.5H81.3C81.1 18.5 81 18.4 80.9 18.2C80.7 17.7 80.6999 17.1 80.9999 16.5C81.1999 16 81.6999 15.6 82.1999 15.4C82.3999 15.3 82.5999 15.4 82.6999 15.6C82.7999 15.8 82.6999 16 82.4999 16.1C81.9999 16.3 81.7999 16.6 81.5999 16.9ZM83.5999 26.5C82.9999 26.5 82.4999 26 82.4999 25.4C82.4999 24.8 82.9999 24.3 83.5999 24.3C84.1999 24.3 84.6999 24.8 84.6999 25.4C84.6999 26 84.0999 26.5 83.5999 26.5ZM86.3 23.2C86.2 23.2 86.1999 23.2 86.0999 23.2C85.9999 23.2 85.8 23.1 85.8 23C85.6 22.7 85.3999 22.4 84.9999 22.3C84.5999 22.2 84.3 22.2 83.9 22.4C83.7 22.5 83.5 22.4 83.4 22.2C83.3 22 83.3999 21.8 83.5999 21.7C84.0999 21.5 84.7 21.4 85.3 21.6C85.9 21.8 86.2999 22.2 86.4999 22.7C86.5999 22.9 86.5 23.1 86.3 23.2Z" fill="#4A4E91"/>
</svg>
