<svg width="50" height="50" viewBox="0 0 50 50" fill="none" xmlns="http://www.w3.org/2000/svg">
<path d="M30.2571 6.49035C30.9335 4.04485 29.1274 1.60072 26.2233 1.03122C23.3191 0.461714 20.4165 1.9825 19.7402 4.428C19.0639 6.87349 20.8699 9.31763 23.7741 9.88713C26.6783 10.4566 29.5808 8.93584 30.2571 6.49035Z" fill="#4A4E91"/>
<path d="M35.922 18.079C35.1605 16.2075 34.0122 14.4389 32.2094 13.1088C30.4125 11.7746 27.9567 10.9657 24.9997 10.9751C22.0425 10.9655 19.587 11.7744 17.7904 13.1088C15.0874 15.1174 13.8509 18.0526 13.1933 20.9612C12.5453 23.8802 12.5018 26.8503 12.5 29.0583C12.5 29.8359 13.2481 30.4659 14.1716 30.4659C15.0946 30.4659 15.8433 29.8359 15.8433 29.0583C15.8345 26.1774 15.9554 22.1245 17.2403 18.9907C17.5435 18.2432 17.9099 17.5573 18.3386 16.946C18.3299 16.9889 18.3214 17.0313 18.3127 17.0746C18.1903 17.325 18.1082 17.5931 18.0756 17.8733C18.0648 17.9662 18.0586 18.0602 18.0586 18.1555C18.0586 19.7255 19.57 20.9978 21.434 20.9978C22.5095 20.9978 23.4649 20.5731 24.0832 19.9137C23.5629 20.8388 22.447 21.4805 21.1503 21.4805C19.4756 21.4805 18.0982 20.4126 17.9231 19.0416C17.2215 22.664 16.4638 27.0542 16.4638 29.13C16.4638 32.9968 19.4995 47.8345 19.4995 47.8345C19.4995 49.0305 20.6509 50 22.0713 50C23.4912 50 24.643 49.0305 24.643 47.8345L24.64 32.9788H25.3595L25.3567 47.8345C25.3567 49.0305 26.5086 50 27.9285 50C29.3488 50 30.5002 49.0305 30.5002 47.8345C30.5002 47.8345 33.5362 32.9968 33.5362 29.13C33.5362 27.054 32.7785 22.6631 32.0767 19.0407C31.9021 20.4122 30.5244 21.4805 28.8494 21.4805C27.553 21.4805 26.4374 20.8393 25.9171 19.9143C26.5351 20.5733 27.4905 20.9978 28.5655 20.9978C30.4297 20.9978 31.9412 19.7255 31.9412 18.1555C31.9412 18.0606 31.9352 17.9666 31.9244 17.8739C31.8915 17.5935 31.8097 17.3256 31.6873 17.0753C31.6786 17.0317 31.6698 16.9893 31.6608 16.946C32.5393 18.2035 33.1473 19.7796 33.52 21.4805C34.1012 24.0822 34.1575 26.8944 34.156 29.0585C34.156 29.8361 34.9046 30.4665 35.8276 30.4665C36.7514 30.4665 37.5 29.8361 37.5 29.0585H37.4995C37.4913 26.1098 37.4334 21.8257 35.922 18.079Z" fill="#4A4E91"/>
</svg>
