<svg width="100" height="100" viewBox="0 0 100 100" fill="none" xmlns="http://www.w3.org/2000/svg">
<path fill-rule="evenodd" clip-rule="evenodd" d="M85.4 15.7H14.6C9.3 15.7 5 20.1 5 25.5V74.5C5 79.9 9.3 84.3 14.6 84.3H85.3C90.6 84.3 94.9 79.9 94.9 74.5V25.5C95 20.1 90.7 15.7 85.4 15.7ZM32.3 28.8C37.7 28.8 42 33.2 42 38.7C42 44.1 37.7 48.5999 32.3 48.5999C26.9 48.5999 22.6 44.2 22.6 38.7C22.6 33.2 27 28.8 32.3 28.8ZM47.8 76.0999H16.8C15 76.0999 13.5 74.7999 13 73.0999C14.1 61.4999 22.3 52.4 32.3 52.4C42.3 52.4 50.5 61.3999 51.6 73.0999C51.2 74.7999 49.7 76.0999 47.8 76.0999ZM82.1 48.4H53.2C51.4 48.4 50 46.8999 50 45.0999C50 43.2999 51.4 41.7999 53.2 41.7999H82.1C83.9 41.7999 85.3 43.2999 85.3 45.0999C85.4 46.8999 83.9 48.4 82.1 48.4ZM82.1 35.2999H53.2C51.4 35.2999 50 33.8 50 32C50 30.2 51.4 28.7 53.2 28.7H82.1C83.9 28.7 85.3 30.2 85.3 32C85.4 33.8 83.9 35.2999 82.1 35.2999Z" fill="#4A4E91"/>
</svg>
