<svg width="512" height="512" viewBox="0 0 512 512" fill="none" xmlns="http://www.w3.org/2000/svg">
<g clip-path="url(#clip0_803_1886)">
<path d="M255.147 0C144.213 0 49.4935 71.68 14.5068 170.667H497.494C461.654 71.68 366.934 0 255.147 0Z" fill="#F9F9F9"/>
<path d="M255.147 512C366.933 512 461.653 440.32 496.64 341.333H14.5068C49.4935 441.173 144.213 512 255.147 512Z" fill="#ED4C5C"/>
<path d="M14.5067 170.667C5.12 197.12 0 226.133 0 256C0 285.867 5.12 314.88 14.5067 341.333H497.493C506.88 314.88 512 285.867 512 256C512 226.133 506.88 197.12 497.493 170.667H14.5067Z" fill="#428BC1"/>
</g>
<defs>
<clipPath id="clip0_803_1886">
<rect width="512" height="512" fill="white"/>
</clipPath>
</defs>
</svg>
