<svg xmlns="http://www.w3.org/2000/svg" width="250" height="44" fill="none" viewBox="0 0 250 44"><g clip-path="url(#a)"><path fill="#FF7691" fill-rule="evenodd" d="M21.313.793c2.205 0 4.348.366 6.37.976 3.062 1.22 6.614.548 9.064-1.769a8.538 8.538 0 0 0 .612 8.05c3.246 3.72 5.267 8.6 5.267 13.966 0 11.71-9.554 21.223-21.313 21.223-2.205 0-4.287-.366-6.247-.915-2.817-.793-4.532-3.659-3.123-6.83-2.083 2.012-5.512 1.83-7.105-.061C1.592 31.652 0 27.078 0 22.016 0 10.306 9.554.793 21.313.793ZM15.985 29.7c-.796-.549-1.899-.366-2.45.427-.306.427-.367.976-.245 1.464a2 2 0 0 1-.367 1.158c-.674.976-2.021 1.16-2.94.488-.123-.06-.184-.183-.306-.244a15.828 15.828 0 0 1-4.41-10.977c0-8.843 7.227-16.04 16.107-16.04 8.82 0 15.985 7.197 15.985 16.04s-7.227 16.04-16.107 16.04c-2.328 0-4.532-.489-6.553-1.403l-.062-.061c-.98-.671-1.163-2.013-.49-2.928.245-.366.613-.61.98-.732.49-.06.98-.305 1.286-.732.552-.853.307-2.012-.428-2.5Zm4.532.915c5.88-1.403 14.699-11.343 7.9-14.332-3-1.342-3.92 1.342-5.879 2.988-4.532-6.647-9.493-2.683-8.39 1.098 1.224 4.086 6.308 7.075 6.369 10.246Z" clip-rule="evenodd"/><path fill="#243580" d="M74.596 8.721c.306.305.428.67.428 1.098 0 .305-.06.61-.183.915L64.429 34.457c-.306.793-.857 1.159-1.653 1.159-.735 0-1.287-.366-1.654-1.159L50.894 11.04c-.184-.488-.306-.915-.306-1.22 0-.488.122-.854.429-1.098a1.849 1.849 0 0 1 1.224-.427c.797 0 1.41.366 1.715 1.098l8.82 21.101 9.002-21.101c.184-.427.368-.732.613-.854a2.376 2.376 0 0 1 1.041-.244c.49 0 .858.122 1.164.427Zm7.043.732c.429.427.674.976.674 1.647 0 .61-.245 1.158-.674 1.646-.429.427-.98.671-1.654.671-.612 0-1.163-.244-1.653-.67a2.247 2.247 0 0 1-.674-1.647c0-.61.245-1.16.674-1.647.428-.427.98-.67 1.653-.67.674-.062 1.164.182 1.654.67Zm-2.94 7.501c.368-.305.796-.488 1.286-.488.552 0 .98.183 1.286.488.307.305.49.732.49 1.28v15.552c0 .488-.183.915-.49 1.281-.306.366-.734.488-1.286.488-.49 0-.918-.183-1.286-.488-.367-.366-.49-.793-.49-1.28V18.234c0-.488.184-.976.49-1.28Zm17.945 15.613c.306.304.428.731.428 1.28 0 .488-.183.915-.55 1.281-.368.305-.858.488-1.47.488h-.613c-1.164 0-2.205-.305-3.123-.915-.92-.61-1.715-1.403-2.205-2.44-.552-1.036-.797-2.195-.797-3.476v-8.599h-1.592c-.49 0-.918-.122-1.163-.427-.307-.304-.43-.61-.43-1.036 0-.488.123-.854.43-1.098.306-.305.673-.427 1.163-.427h1.593v-5.062c0-.488.183-.914.49-1.28.306-.305.734-.488 1.286-.488.49 0 .918.183 1.286.488.306.305.49.731.49 1.28v5.062h3c.49 0 .92.122 1.164.427.307.305.429.67.429 1.098 0 .427-.122.793-.429 1.037-.306.304-.673.426-1.163.426h-3.001v8.66c0 .915.245 1.708.796 2.318a2.38 2.38 0 0 0 1.898.915h1.164c.245 0 .613.183.919.488Zm13.045 0c.306.304.429.731.429 1.28 0 .488-.184.915-.552 1.281-.367.305-.857.488-1.47.488h-.612c-1.164 0-2.205-.305-3.123-.915-.919-.61-1.715-1.403-2.205-2.44-.551-1.036-.796-2.195-.796-3.476v-8.599h-1.593c-.49 0-.918-.122-1.163-.427-.307-.304-.43-.61-.43-1.036 0-.488.123-.854.43-1.098.306-.305.673-.427 1.163-.427h1.593v-5.062c0-.488.183-.914.49-1.28.306-.305.734-.488 1.286-.488.49 0 .918.183 1.286.488.306.305.49.731.49 1.28v5.062h3.001c.49 0 .918.122 1.163.427.307.305.429.67.429 1.098 0 .427-.122.793-.429 1.037-.306.304-.673.426-1.163.426h-3.185v8.66c0 .915.245 1.708.796 2.318a2.38 2.38 0 0 0 1.899.915h1.163c.429 0 .797.183 1.103.488Zm17.393-15.003c1.47.854 2.634 1.952 3.43 3.415.857 1.464 1.225 3.172 1.225 5.062 0 1.89-.429 3.537-1.225 5a8.39 8.39 0 0 1-3.43 3.416c-1.47.854-3.123 1.22-5.022 1.22-1.898 0-3.552-.427-5.022-1.22-1.47-.854-2.633-1.951-3.43-3.415-.796-1.464-1.224-3.11-1.224-5 0-1.892.428-3.538 1.224-5.063a8.397 8.397 0 0 1 3.43-3.415c1.47-.854 3.124-1.22 5.022-1.22 1.96 0 3.614.427 5.022 1.22Zm-8.145 2.744c-.919.55-1.715 1.342-2.205 2.318-.551.976-.796 2.134-.796 3.415 0 1.28.245 2.378.796 3.354s1.286 1.769 2.205 2.318a6.212 6.212 0 0 0 3.184.854 6.212 6.212 0 0 0 3.185-.854c.919-.55 1.715-1.342 2.205-2.318.551-.976.796-2.134.796-3.354 0-1.28-.245-2.378-.796-3.415-.551-.976-1.286-1.769-2.205-2.318a6.212 6.212 0 0 0-3.185-.853 6.21 6.21 0 0 0-3.184.853Zm29.458-3.476c.674.366 1.042.854 1.042 1.403 0 .183 0 .305-.062.366-.183.732-.673 1.098-1.408 1.098-.123 0-.307 0-.552-.061a11.962 11.962 0 0 0-2.266-.244c-1.714 0-3.062.366-4.042 1.158-1.041.793-1.531 1.83-1.531 3.11v10.185c0 .55-.122.976-.429 1.281-.306.305-.734.427-1.286.427-.551 0-.98-.122-1.286-.427-.306-.305-.429-.732-.429-1.28V18.234c0-.549.123-.976.429-1.28.306-.306.735-.428 1.286-.428 1.164 0 1.776.61 1.776 1.769v.61c.674-.793 1.593-1.464 2.573-1.952 1.041-.488 2.143-.67 3.307-.67 1.225 0 2.143.182 2.878.548Zm7.472-7.38c.429.428.674.977.674 1.648 0 .61-.245 1.158-.674 1.646-.429.427-.98.671-1.653.671-.613 0-1.164-.244-1.654-.67a2.246 2.246 0 0 1-.674-1.647c0-.61.245-1.16.674-1.647.429-.427.98-.67 1.654-.67.612-.062 1.163.182 1.653.67Zm-2.94 7.502c.368-.305.797-.488 1.287-.488.551 0 .979.183 1.286.488.306.305.49.732.49 1.28v15.552c0 .488-.184.915-.49 1.281-.307.366-.735.488-1.286.488-.49 0-.919-.183-1.287-.488-.367-.366-.49-.793-.49-1.28V18.234c0-.488.184-.976.49-1.28Zm22.293.671a9.519 9.519 0 0 1 3.491 3.476c.858 1.464 1.286 3.11 1.286 4.94v7.806c0 .488-.183.915-.489 1.281-.368.366-.797.488-1.287.488-.49 0-.918-.183-1.286-.488-.367-.366-.49-.793-.49-1.28v-1.281a8.62 8.62 0 0 1-3.001 2.317 8.87 8.87 0 0 1-3.797.854c-1.715 0-3.185-.427-4.593-1.28a9.351 9.351 0 0 1-3.246-3.477c-.796-1.464-1.164-3.11-1.164-4.94 0-1.83.429-3.476 1.286-4.94a9.526 9.526 0 0 1 3.491-3.476c1.47-.854 3.124-1.28 4.961-1.28 1.715 0 3.369.426 4.838 1.28Zm-1.714 14.088c.918-.55 1.714-1.342 2.204-2.318.552-.976.797-2.073.797-3.354 0-1.22-.245-2.378-.797-3.354a6.865 6.865 0 0 0-2.204-2.379 6.214 6.214 0 0 0-3.185-.853c-1.164 0-2.205.305-3.185.853a6.076 6.076 0 0 0-2.266 2.379c-.551.976-.796 2.134-.796 3.354 0 1.22.245 2.317.796 3.354.551.976 1.286 1.769 2.266 2.318a6.215 6.215 0 0 0 3.185.854c1.164 0 2.205-.244 3.185-.854Zm32.337-22.992c.306.305.428.67.428 1.098 0 .305-.061.61-.183.915l-10.412 23.723c-.306.793-.857 1.159-1.653 1.159-.735 0-1.287-.366-1.654-1.159L182.08 11.04c-.184-.488-.306-.915-.306-1.22 0-.488.122-.854.428-1.098a1.851 1.851 0 0 1 1.225-.427c.796 0 1.409.366 1.715 1.098l8.819 21.101 9.003-21.101c.184-.427.368-.732.613-.854a2.375 2.375 0 0 1 1.041-.244c.49 0 .919.122 1.225.427Zm6.982.732c.428.427.673.976.673 1.647 0 .61-.245 1.158-.673 1.646-.429.427-.98.671-1.654.671-.612 0-1.164-.244-1.654-.67a2.25 2.25 0 0 1-.673-1.647c0-.61.245-1.16.673-1.647.429-.427.98-.67 1.654-.67.674-.062 1.225.182 1.654.67Zm-2.879 7.501c.368-.305.796-.488 1.286-.488.551 0 .98.183 1.286.488.307.305.49.732.49 1.28v15.552c0 .488-.183.915-.49 1.281-.306.366-.735.488-1.286.488-.49 0-.918-.183-1.286-.488-.367-.366-.49-.793-.49-1.28V18.234a1.435 1.435 0 0 1 .49-1.28Zm17.883 15.613c.307.304.429.731.429 1.28 0 .488-.184.915-.551 1.281-.367.305-.857.488-1.47.488h-.612c-1.164 0-2.205-.305-3.124-.915-.918-.61-1.715-1.403-2.205-2.44-.551-1.036-.796-2.195-.796-3.476v-8.599h-1.592c-.49 0-.919-.122-1.164-.427-.306-.304-.428-.61-.428-1.036 0-.488.122-.854.428-1.098.306-.305.674-.427 1.164-.427h1.592v-5.062c0-.488.184-.914.49-1.28.306-.305.735-.488 1.286-.488.49 0 .919.183 1.286.488.307.305.49.731.49 1.28v5.062h3.001c.49 0 .919.122 1.164.427.306.305.429.67.429 1.098 0 .427-.123.793-.429 1.037-.306.304-.674.426-1.164.426h-3.123v8.66c0 .915.245 1.708.796 2.318a2.38 2.38 0 0 0 1.899.915h1.163c.429 0 .797.183 1.041.488Zm17.394-14.942a9.526 9.526 0 0 1 3.491 3.476c.857 1.464 1.286 3.11 1.286 4.94v7.806c0 .488-.184.915-.49 1.281-.367.366-.796.488-1.286.488s-.919-.183-1.286-.488c-.368-.366-.49-.793-.49-1.28v-1.281a8.63 8.63 0 0 1-3.001 2.317 8.877 8.877 0 0 1-3.797.854c-1.715 0-3.185-.427-4.594-1.28a9.367 9.367 0 0 1-3.246-3.477c-.796-1.464-1.163-3.11-1.163-4.94 0-1.83.428-3.476 1.286-4.94a9.519 9.519 0 0 1 3.491-3.476c1.47-.854 3.123-1.28 4.961-1.28 1.776 0 3.368.426 4.838 1.28Zm-1.715 14.088c.919-.55 1.715-1.342 2.205-2.318.551-.976.796-2.073.796-3.354 0-1.22-.245-2.378-.796-3.354a6.858 6.858 0 0 0-2.205-2.379 6.214 6.214 0 0 0-3.185-.853c-1.163 0-2.204.305-3.184.853a6.076 6.076 0 0 0-2.266 2.379c-.552.976-.797 2.134-.797 3.354 0 1.22.245 2.317.797 3.354.551.976 1.286 1.769 2.266 2.318a6.212 6.212 0 0 0 3.184.854c1.164 0 2.266-.244 3.185-.854Z"/></g><defs><clipPath id="a"><path fill="#fff" d="M0 0h250v43.239H0z"/></clipPath></defs></svg>